<?xml version="1.0" standalone="no"?>
<!DOCTYPE svg PUBLIC "-//W3C//DTD SVG 1.1//EN" "http://www.w3.org/Graphics/SVG/1.1/DTD/svg11.dtd" >
<svg xmlns="http://www.w3.org/2000/svg">
<metadata>Generated by IcoMoon</metadata>
<defs>
<font id="icomoon" horiz-adv-x="1024">
<font-face units-per-em="1024" ascent="960" descent="-64" />
<missing-glyph horiz-adv-x="1024" />
<glyph unicode="&#x20;" horiz-adv-x="512" d="" />
<glyph unicode="&#xe900;" glyph-name="pf-user-no-neck" horiz-adv-x="945" d="M889.234 160.492c-23.213 54.994-56.911 104.947-99.202 147.077-42.16 42.251-92.105 75.937-147.075 99.2-0.492 0.247-0.985 0.369-1.477 0.616 76.677 55.384 126.523 145.599 126.523 247.384 0 168.615-136.616 305.231-305.231 305.231s-305.231-136.616-305.231-305.231c0-101.785 49.846-192 126.523-247.508-0.492-0.246-0.985-0.369-1.477-0.615-55.138-23.261-104.616-56.615-147.077-99.2-42.251-42.162-75.938-92.106-99.2-147.079-22.853-53.815-35.178-111.514-36.308-169.968-0.033-1.315 0.198-2.615 0.678-3.844 0.48-1.221 1.2-2.339 2.118-3.277s2.014-1.686 3.225-2.198c1.211-0.512 2.512-0.772 3.826-0.772h73.846c5.415 0 9.723 4.309 9.846 9.602 2.462 95.011 40.615 183.998 108.061 251.444 69.785 69.785 162.462 108.185 261.17 108.185s191.385-38.4 261.169-108.185c67.445-67.446 105.601-156.433 108.059-251.444 0.126-5.419 4.435-9.602 9.846-9.602h73.846c1.315 0 2.615 0.26 3.828 0.772s2.308 1.26 3.23 2.198c0.914 0.937 1.631 2.056 2.111 3.277 0.48 1.229 0.717 2.528 0.677 3.844-1.229 58.833-13.414 116.066-36.305 170.094zM462.772 443.077c-56.493 0-109.662 22.031-149.662 62.031s-62.031 93.169-62.031 149.662c0 56.493 22.031 109.662 62.031 149.662s93.169 62.031 149.662 62.031c56.493 0 109.662-22.031 149.662-62.031s62.031-93.169 62.031-149.662c0-56.493-22.031-109.662-62.031-149.662s-93.169-62.031-149.662-62.031z" />
<glyph unicode="&#xe901;" glyph-name="pf-file-edit" d="M862.123 960c13.451 0 26.349-5.394 35.86-14.996s14.853-22.625 14.853-36.204v-192.358l-101.426-102.4v243.558h-709.984v-819.2h709.984v141.21l101.426 102.4v-294.81c0-13.582-5.342-26.605-14.853-36.203-9.511-9.607-22.41-14.997-35.86-14.997h-811.41c-13.45 0-26.349 5.39-35.86 14.997-9.511 9.598-14.853 22.621-14.853 36.203v921.6c0 13.579 5.343 26.602 14.853 36.204s22.41 14.996 35.86 14.996h811.41zM952.292 611.43l71.708-72.397-394.447-398.234-71.81 0.102 0.101 72.294 394.448 398.234zM507.131 448v-102.4h-253.566v102.4h253.566zM659.271 652.8v-102.4h-405.705v102.4h405.705z" />
<glyph unicode="&#xe902;" glyph-name="pf-archived" d="M946.829 751.889l-134.355 131.281c-4.154 4.074-9.088 7.305-14.528 9.507-5.434 2.202-11.264 3.331-17.146 3.323h-537.6c-5.884 0.008-11.712-1.121-17.148-3.323s-10.372-5.433-14.526-9.507l-134.355-131.281c-4.186-4.058-7.505-8.888-9.766-14.211s-3.418-11.030-3.405-16.792v-569.308c0-48.301 40.186-87.578 89.6-87.578h716.8c49.414 0 89.6 39.277 89.6 87.578v569.308c0.013 5.763-1.146 11.471-3.405 16.792s-5.581 10.152-9.766 14.211zM261.747 808.421h500.506l44.755-43.746h-590.016l44.755 43.746zM153.6 151.578v525.519h716.8l0.090-525.519h-716.89zM665.6 448h-307.2v64h-102.4v-128h512v128h-102.4v-64z" />
<glyph unicode="&#xe903;" glyph-name="pf-draft" d="M609.524 561.778h268.191l-268.191 312.888v-312.888zM170.666 960h487.619l292.571-341.334v-568.885c0-30.179-10.277-59.121-28.562-80.457-18.293-21.336-43.096-33.324-68.959-33.324h-682.669c-25.865 0-50.67 11.988-68.96 33.324s-28.564 50.278-28.564 80.457v796.441c0 63.147 43.398 113.778 97.524 113.778zM170.666 846.222v-796.441h682.669v398.219h-341.336v398.222h-341.334z" />
<glyph unicode="&#xe904;" glyph-name="pf-cog" d="M899.189 420.191v55.954l70.217 61.44c12.939 11.408 21.438 27.025 23.976 44.091 2.545 17.065-1.024 34.48-10.079 49.167l-86.309 146.286c-6.415 11.108-15.638 20.334-26.741 26.753s-23.706 9.805-36.528 9.818c-7.951 0.061-15.857-1.175-23.406-3.657l-88.87-29.989c-15.343 10.195-31.348 19.359-47.909 27.429l-18.651 92.16c-3.344 16.837-12.504 31.962-25.876 42.726s-30.104 16.483-47.267 16.154h-171.154c-17.163 0.329-33.894-5.389-47.266-16.154s-22.532-25.889-25.876-42.726l-18.651-92.16c-16.679-8.068-32.805-17.231-48.274-27.429l-87.040 31.451c-7.632 1.988-15.536 2.73-23.406 2.194-12.826-0.013-25.424-3.399-36.529-9.818s-20.326-15.645-26.74-26.753l-86.308-146.286c-8.536-14.665-11.708-31.841-8.973-48.587s11.208-32.021 23.967-43.207l69.12-63.269v-55.954l-69.12-61.44c-13.119-11.264-21.824-26.812-24.569-43.884s0.647-34.564 9.574-49.373l86.308-146.286c6.413-11.11 15.635-20.334 26.74-26.756 11.105-6.415 23.703-9.801 36.529-9.816 7.949-0.059 15.854 1.178 23.406 3.657l88.869 29.989c15.343-10.196 31.348-19.361 47.909-27.429l18.651-92.16c3.345-16.837 12.505-31.963 25.876-42.73 13.372-10.759 30.103-16.479 47.266-16.15h172.617c17.163-0.329 33.895 5.391 47.267 16.15 13.372 10.767 22.532 25.893 25.876 42.73l18.651 92.16c16.679 8.068 32.806 17.232 48.274 27.429l88.504-29.989c7.548-2.48 15.455-3.716 23.406-3.657 12.822 0.015 25.424 3.401 36.528 9.816 11.103 6.422 20.326 15.645 26.741 26.756l83.383 146.286c8.536 14.664 11.71 31.841 8.975 48.587s-11.213 32.020-23.969 43.207l-69.12 63.269zM833.726 155.414l-125.441 42.423c-29.364-24.876-62.925-44.317-99.109-57.417l-25.966-131.291h-172.617l-25.966 129.829c-35.898 13.473-69.277 32.885-98.743 57.417l-125.806-40.96-86.309 146.286 99.474 87.771c-6.762 37.857-6.762 76.612 0 114.469l-99.474 90.331 86.309 146.286 125.44-42.423c29.365 24.872 62.926 44.315 99.109 57.417l25.966 131.291h172.617l25.966-129.829c35.898-13.474 69.277-32.883 98.743-57.417l125.807 40.96 86.309-146.286-99.474-87.771c6.758-37.857 6.758-76.612 0-114.469l99.474-90.331-86.309-146.286zM496.911 228.571c-43.399 0-85.823 12.869-121.908 36.98s-64.209 58.381-80.818 98.477c-16.608 40.095-20.953 84.215-12.486 126.78s29.365 81.663 60.052 112.351c30.688 30.688 69.786 51.586 112.351 60.052s86.685 4.122 126.78-12.486c40.095-16.609 74.366-44.733 98.477-80.818s36.98-78.509 36.98-121.908c0.293-28.897-5.181-57.563-16.105-84.318s-27.075-51.061-47.51-71.496c-20.435-20.435-44.741-36.587-71.496-47.51s-55.42-16.398-84.318-16.105zM496.911 594.286c-19.334 0.451-38.557-3.026-56.509-10.218s-34.258-17.951-47.933-31.626c-13.675-13.675-24.433-29.981-31.626-47.933s-10.669-37.176-10.218-56.509c-0.451-19.334 3.026-38.558 10.218-56.509s17.951-34.259 31.626-47.933c13.675-13.674 29.981-24.433 47.933-31.626s37.176-10.668 56.509-10.217c19.334-0.451 38.558 3.025 56.509 10.217s34.259 17.951 47.933 31.626c13.674 13.675 24.433 29.981 31.626 47.933s10.668 37.176 10.217 56.509c0.451 19.334-3.025 38.558-10.217 56.509s-17.951 34.258-31.626 47.933c-13.675 13.675-29.981 24.433-47.933 31.626s-37.176 10.669-56.509 10.218z" />
<glyph unicode="&#xe905;" glyph-name="pf-user-group" d="M391.529 839.529c-119.939 0-217.516-99.553-217.516-221.919s97.578-221.919 217.516-221.919c119.939 0 217.516 99.553 217.516 221.919s-97.577 221.919-217.516 221.919zM391.529 484.458c-71.955 0-130.51 59.741-130.51 133.152s58.555 133.152 130.51 133.152c71.955 0 130.51-59.741 130.51-133.152s-58.555-133.152-130.51-133.152zM783.059-3.765v44.381c0 171.279-136.644 310.69-304.523 310.69h-174.013c-167.923 0-304.523-139.411-304.523-310.69v-44.381h87.006v44.381c0 122.368 97.578 221.925 217.517 221.925h174.013c119.939 0 217.519-99.557 217.519-221.925v-44.381h87.004zM682.4 323.442c111.995-8.912 200.451-104.74 200.451-221.241v-44.387h87.004v44.387c0 165.43-127.476 301.135-287.455 310.203v-88.962zM682.4 484.363c67.542 37.704 113.441 110.9 113.441 194.827 0 114.083-84.811 208.336-193.488 220.574 38.725-34.76 66.126-81.879 76.005-135.151 19.016-23.138 30.479-52.943 30.479-85.424 0-30.108-9.848-57.916-26.437-80.247v-114.58z" />
<glyph unicode="&#xe906;" glyph-name="pf-user-single" d="M512 960c-145.64 0-264.127-120.886-264.127-269.474s118.487-269.474 264.127-269.474c145.64 0 264.126 120.886 264.126 269.474s-118.486 269.474-264.126 269.474zM512 528.842c-87.374 0-158.476 72.542-158.476 161.684s71.103 161.684 158.476 161.684c87.374 0 158.476-72.542 158.476-161.684s-71.103-161.684-158.476-161.684zM987.429-64v53.892c0 207.982-165.925 377.266-369.778 377.266h-211.301c-203.906 0-369.778-169.285-369.778-377.266v-53.892h105.65v53.892c0 148.59 118.488 269.477 264.128 269.477h211.301c145.64 0 264.131-120.887 264.131-269.477v-53.892h105.648z" />
<glyph unicode="&#xe907;" glyph-name="pf-lock" d="M512 960c-151.241 0-274.286-114.842-274.286-256v-102.4h-54.857c-60.507 0-109.714-45.926-109.714-102.4v-460.8c0-56.474 49.207-102.4 109.714-102.4h658.286c60.511 0 109.714 45.926 109.714 102.4v460.8c0 56.474-49.203 102.4-109.714 102.4h-54.857v102.4c0 141.158-123.045 256-274.286 256zM347.429 704c0 84.685 73.838 153.6 164.571 153.6s164.571-68.915 164.571-153.6v-102.4h-329.143v102.4zM841.253 38.4h-274.395v116.634c32.64 17.766 54.857 50.432 54.857 88.166 0 56.474-49.207 102.4-109.714 102.4s-109.714-45.926-109.714-102.4c0-37.683 22.217-70.4 54.857-88.166v-116.634h-274.286v460.8h658.286l0.11-460.8z" />
<glyph unicode="&#xe908;" glyph-name="pf-check-square" d="M853.336 960h-682.669c-45.264 0-88.673-17.981-120.679-49.987s-49.987-75.416-49.987-120.679v-682.669c0-45.261 17.981-88.671 49.987-120.678s75.416-49.986 120.679-49.986h682.669c45.261 0 88.671 17.979 120.678 49.986s49.986 75.418 49.986 120.678v682.669c0 45.264-17.979 88.673-49.986 120.679s-75.418 49.987-120.678 49.987zM910.219 106.664c0-15.082-5.99-29.557-16.662-40.221-10.664-10.672-25.139-16.662-40.221-16.662h-682.669c-15.088 0-29.558 5.99-40.226 16.662-10.669 10.664-16.662 25.139-16.662 40.221v682.669c0 15.088 5.993 29.558 16.662 40.226s25.138 16.662 40.226 16.662h682.669c15.082 0 29.557-5.993 40.221-16.662 10.672-10.669 16.662-25.138 16.662-40.226v-682.669zM665.595 653.398l-215.040-284.445-92.729 120.036c-9.279 11.919-22.913 19.664-37.903 21.531s-30.106-2.297-42.026-11.576c-11.919-9.28-19.664-22.913-21.531-37.903s2.297-30.107 11.576-42.026l138.24-176.925c5.358-6.78 12.189-12.251 19.976-15.993 7.788-3.752 16.325-5.669 24.967-5.625 8.688 0.022 17.256 2.033 25.046 5.873 7.79 3.85 14.596 9.429 19.896 16.313l259.983 341.333c9.201 12.071 13.232 27.303 11.205 42.345s-9.947 28.665-22.016 37.868c-12.069 9.204-27.301 13.235-42.344 11.208s-28.665-9.947-37.868-22.017h0.569z" />
<glyph unicode="&#xe909;" glyph-name="pf-help1" d="M512 960c-282.75 0-512-229.333-512-512 0-282.836 229.25-512 512-512 282.748 0 512 229.164 512 512 0 282.667-229.252 512-512 512zM512 35.094c-228.195 0-412.903 184.635-412.903 412.906 0 228.119 184.716 412.903 412.903 412.903 228.111 0 412.906-184.714 412.906-412.903 0-228.191-184.635-412.906-412.906-412.906zM733.403 561.961c0-138.429-149.511-140.56-149.511-191.717v-13.082c0-13.682-11.093-24.774-24.774-24.774h-94.239c-13.681 0-24.774 11.092-24.774 24.774v17.876c0 73.796 55.948 103.296 98.228 127.001 36.255 20.325 58.476 34.149 58.476 61.066 0 35.604-45.417 59.237-82.135 59.237-47.874 0-69.974-22.662-101.042-61.871-8.376-10.571-23.659-12.534-34.407-4.386l-57.443 43.557c-10.544 7.994-12.905 22.846-5.459 33.782 48.778 71.627 110.908 111.866 207.639 111.866 101.308 0 209.442-79.080 209.442-183.33zM598.709 216.773c0-47.813-38.897-86.711-86.709-86.711s-86.709 38.897-86.709 86.711c0 47.813 38.897 86.71 86.709 86.71s86.709-38.897 86.709-86.71z" />
<glyph unicode="&#xe90a;" glyph-name="pf-company" d="M204.8 960h614.4c27.156 0 53.207-10.789 72.41-29.992s29.99-45.25 29.99-72.408v-921.6h-819.2v921.6c0 27.158 10.789 53.204 29.992 72.408s45.25 29.992 72.408 29.992zM204.8 38.4h204.8v204.8h204.8v-204.8h204.8v819.2h-614.4v-819.2zM563.2 755.2h153.6v-153.6h-153.6v153.6zM307.2 499.2h153.6v-153.6h-153.6v153.6zM563.2 499.2h153.6v-153.6h-153.6v153.6zM307.2 755.2h153.6v-153.6h-153.6v153.6z" />
<glyph unicode="&#xe90b;" glyph-name="pf-user-arrow" d="M534.761 311.379v-95.117c-41.191 14.561-85.275 19.026-128.55 13.025-43.275-6.007-84.478-22.303-120.148-47.534-35.67-25.225-64.767-58.648-84.845-97.451s-30.553-81.852-30.545-125.542l-91.022 0.041c-0.014 55.576 12.694 110.415 37.151 160.317 24.457 49.91 60.013 93.553 103.944 127.59 43.931 34.034 95.071 57.564 149.501 68.781s110.706 9.782 164.515-4.112zM443.739 368.358c-150.869 0-273.067 122.197-273.067 273.067s122.197 273.067 273.067 273.067c150.869 0 273.068-122.198 273.068-273.067s-122.199-273.067-273.068-273.067zM443.739 459.381c100.579 0 182.045 81.465 182.045 182.044s-81.465 182.045-182.045 182.045c-100.579 0-182.045-81.465-182.045-182.045s81.465-182.044 182.045-182.044zM781.339 186.313h163.205v-91.020h-163.205l83.238-83.197-64.348-64.396-193.105 193.099 193.105 193.107 64.348-64.397-83.238-83.197z" />
<glyph unicode="&#xe90c;" glyph-name="pf-arrow-left" d="M374.655 662.656c2.98-2.972 5.344-6.504 6.958-10.391s2.444-8.056 2.444-12.265c0-4.209-0.83-8.377-2.444-12.265s-3.978-7.419-6.958-10.391l-169.408-169.344 169.408-169.346c2.975-2.974 5.335-6.507 6.946-10.394s2.439-8.052 2.439-12.26c0-4.208-0.829-8.374-2.439-12.26s-3.97-7.419-6.946-10.398c-2.975-2.974-6.508-5.334-10.395-6.945s-8.054-2.439-12.261-2.439c-4.208 0-8.374 0.829-12.261 2.439s-7.419 3.97-10.395 6.945l-192 192c-2.98 2.974-5.344 6.507-6.958 10.394s-2.444 8.057-2.444 12.265c0 4.208 0.83 8.378 2.444 12.265s3.977 7.419 6.958 10.389l192 192.002c2.972 2.98 6.504 5.344 10.391 6.958s8.056 2.444 12.265 2.444c4.209 0 8.377-0.83 12.264-2.444s7.419-3.978 10.392-6.958zM159.999 448c0 8.485 3.372 16.626 9.373 22.626 6.001 6.004 14.141 9.374 22.627 9.374h672.001c8.485 0 16.626-3.37 22.626-9.374 6.004-6 9.374-14.141 9.374-22.626s-3.37-16.626-9.374-22.626c-6-6.004-14.141-9.374-22.626-9.374h-672.001c-8.487 0-16.626 3.37-22.627 9.374-6.001 6-9.373 14.141-9.373 22.626z" />
<glyph unicode="&#xe90d;" glyph-name="pf-rocket" d="M892.584 858.295c-47.938 10.87-96.936 16.365-146.088 16.384-110.297 0-198.958-30.422-256.473-87.936-45.435-45.405-90.592-91.088-135.467-137.046-51.797 5.846-173.952 8.662-256.725-74.154-3.981-3.95-7.141-8.65-9.297-13.827s-3.267-10.73-3.267-16.339c0-5.609 1.11-11.162 3.267-16.339s5.316-9.876 9.297-13.827l482.688-482.685c3.953-3.979 8.653-7.131 13.83-9.289 5.177-2.15 10.729-3.262 16.335-3.262s11.159 1.112 16.335 3.262c5.177 2.158 9.877 5.31 13.831 9.289 83.37 83.324 80.81 205.395 75.392 256.424l135.85 135.808c136.148 136.149 74.24 391.765 71.556 402.56-1.894 7.491-5.778 14.33-11.249 19.785s-12.317 9.324-19.814 11.191zM791.764 485.047l-150.872-150.827c-4.965-4.966-8.626-11.081-10.658-17.802s-2.373-13.841-0.99-20.726c0.214-1.066 17.366-95.661-22.869-168.277l-413.654 413.61c72.534 40.022 168.15 21.504 168.448 21.504 14.080-2.986 29.184 1.536 39.382 12.074 0.128 0.128 59.989 61.995 149.845 151.851 51.968 51.968 135.296 62.89 196.1 62.89 40.404 0 76.5-4.736 99.496-8.662 10.408-61.056 26.668-214.698-54.228-295.637zM671.065 520.369c47.129 0 85.334 38.205 85.334 85.334s-38.205 85.333-85.334 85.333c-47.128 0-85.333-38.205-85.333-85.333s38.205-85.334 85.333-85.334zM213.334 277.321c-85.334-42.666-85.334-213.336-85.334-213.336s128 0 213.334 85.336l-128 128z" />
<glyph unicode="&#xe90e;" glyph-name="pf-delete-circle" d="M391.34 267.008l120.66 120.663 120.663-120.663 60.329 60.334-120.658 120.659 120.658 120.662-60.329 60.33-120.663-120.661-120.66 120.661-60.33-60.33 120.661-120.662-120.661-120.659 60.33-60.334zM512 21.335c235.264 0 426.67 191.401 426.67 426.667 0 235.264-191.406 426.666-426.67 426.666-235.263 0-426.665-191.402-426.665-426.666 0-235.266 191.402-426.667 426.665-426.667zM512 789.336c188.206 0 341.335-153.131 341.335-341.334s-153.129-341.332-341.335-341.332c-188.201 0-341.332 153.129-341.332 341.332s153.131 341.334 341.332 341.334z" />
<glyph unicode="&#xe90f;" glyph-name="pf-remove" d="M512-64c135.789 0 266.022 53.946 362.042 149.958 96.013 96.019 149.958 226.253 149.958 362.042 0 135.791-53.946 266.020-149.958 362.038-96.019 96.019-226.253 149.962-362.042 149.962-135.791 0-266.020-53.943-362.038-149.962s-149.962-226.248-149.962-362.038c0-135.789 53.943-266.022 149.962-362.042 96.019-96.013 226.248-149.958 362.038-149.958zM320 512c-16.974 0-33.252-6.743-45.255-18.745s-18.745-28.281-18.745-45.255c0-16.974 6.743-33.252 18.745-45.255s28.281-18.745 45.255-18.745h384c16.973 0 33.254 6.743 45.254 18.745s18.746 28.281 18.746 45.255c0 16.974-6.746 33.252-18.746 45.255s-28.282 18.745-45.254 18.745h-384z" />
<glyph unicode="&#xe910;" glyph-name="pf-feed" d="M58.021 901.979v-141.389c423.27 0 766.378-343.228 766.378-766.496h141.506c0 501.399-406.483 907.884-907.884 907.884zM58.021 619.023v-141.508c63.489 0 126.356-12.506 185.011-36.804s111.951-59.912 156.841-104.808c44.89-44.896 80.498-98.195 104.788-156.854s36.789-121.525 36.781-185.013h141.449c0 345.137-279.791 624.987-624.87 624.987zM193.556 265.282c-35.476-0.745-69.25-15.361-94.077-40.714s-38.731-59.425-38.731-94.91c0-35.483 13.904-69.557 38.731-94.909s58.6-39.97 94.077-40.713c74.906 0 135.535 60.689 135.535 135.592 0 74.906-60.629 135.654-135.535 135.654z" />
<glyph unicode="&#xe911;" glyph-name="pf-users" d="M0 86.588c0 73.029 28.558 143.070 79.391 194.71s119.778 80.651 191.668 80.651c71.889 0 140.834-29.011 191.668-80.651s79.391-121.681 79.391-194.71h-67.765c0 54.772-21.418 107.303-59.543 146.033s-89.834 60.488-143.751 60.488c-53.917 0-105.626-21.758-143.751-60.488s-59.543-91.261-59.543-146.033h-67.765zM271.059 396.37c-112.32 0-203.294 92.418-203.294 206.521s90.974 206.521 203.294 206.521c112.32 0 203.294-92.418 203.294-206.521s-90.974-206.521-203.294-206.521zM271.059 465.21c74.88 0 135.529 61.612 135.529 137.681s-60.65 137.68-135.529 137.68c-74.88 0-135.529-61.612-135.529-137.68s60.65-137.681 135.529-137.681zM562.191 267.294c0 54.773 22.212 107.302 61.75 146.033s93.16 60.488 149.076 60.488c55.91 0 109.532-21.758 149.070-60.488s61.753-91.26 61.753-146.033h-52.706c0 41.080-16.661 80.477-46.315 109.524s-69.873 45.367-111.803 45.367c-41.936 0-82.155-16.319-111.809-45.367s-46.309-68.444-46.309-109.524h-52.709zM773.018 499.63c-87.365 0-158.118 69.314-158.118 154.891s70.752 154.891 158.118 154.891c87.359 0 158.118-69.313 158.118-154.891s-70.758-154.891-158.118-154.891zM773.018 551.261c58.235 0 105.412 46.209 105.412 103.26s-47.176 103.261-105.412 103.261c-58.242 0-105.412-46.209-105.412-103.261s47.17-103.26 105.412-103.26z" />
<glyph unicode="&#xe912;" glyph-name="pf-inbox" d="M856.615 841.846h-689.231c-39.17 0-76.736-15.56-104.434-43.258s-43.258-65.264-43.258-104.435v-492.308c0-39.17 15.56-76.736 43.258-104.434 27.698-27.702 65.264-43.258 104.434-43.258h689.231c39.172 0 76.737 15.557 104.432 43.258 27.703 27.698 43.26 65.263 43.26 104.434v492.308c0 39.17-15.557 76.736-43.26 104.435-27.695 27.697-65.26 43.258-104.432 43.258zM823.635 743.385l-311.635-233.846-311.631 233.846h623.265zM856.615 152.615h-689.231c-13.057 0-25.579 5.187-34.811 14.419s-14.419 21.754-14.419 34.811v480l364.308-273.231c8.522-6.391 18.886-9.846 29.538-9.846s21.017 3.455 29.538 9.846l364.308 273.231v-480c0-13.057-5.183-25.579-14.423-34.811-9.232-9.233-21.748-14.419-34.808-14.419z" />
<glyph unicode="&#xe913;" glyph-name="pf-notification" horiz-adv-x="951" d="M877.714 905.143c-4.345 0-8.799-0.8-13.253-2.629l-658.747-264.686h-187.429c-10.057 0-18.286-8.457-18.286-18.971v-341.715c0-10.514 8.229-18.971 18.286-18.971h116.228c-4.228-13.257-6.514-27.314-6.514-41.603 0-75.315 61.486-136.565 137.143-136.565 63.314 0 116.686 42.971 132.457 101.025l466.97-187.655c4.462-1.719 8.916-2.633 13.261-2.633 19.31 0 36.571 16.23 36.571 37.947v838.513c-0.117 21.714-17.262 37.943-36.688 37.943zM265.143 161.946c-30.286 0-54.857 24.452-54.857 54.623 0 12.803 4.457 25.032 12.572 34.746l97.028-38.973c-2.286-28.109-25.943-50.395-54.743-50.395zM832 95.203l-610.4 245.255h-139.314v215.085h139.314l14.743 5.943 595.657 239.315v-705.597z" />
<glyph unicode="&#xe914;" glyph-name="pf-flag" horiz-adv-x="866" d="M152.904 857.601h662.594c13.509 0 26.474-5.394 36.037-14.998 9.555-9.6 14.927-22.625 14.927-36.204v-460.798c0-13.579-5.372-26.604-14.927-36.204-9.563-9.604-22.528-14.998-36.037-14.998h-662.594v-255.999h50.972v-102.4h-203.875v102.4h50.966v921.6h101.937v-102.399z" />
<glyph unicode="&#xe915;" glyph-name="pf-trash" horiz-adv-x="878" d="M846.365 896h-235.1l-18.416 37.4c-3.901 7.996-9.911 14.722-17.352 19.421s-16.020 7.186-24.771 7.179h-223.934c-8.731 0.034-17.294-2.443-24.709-7.147s-13.382-11.446-17.218-19.453l-18.416-37.4h-235.102c-8.314 0-16.287-3.371-22.166-9.373s-9.181-14.14-9.181-22.627v-64c0-8.487 3.303-16.627 9.181-22.627s13.852-9.373 22.166-9.373h815.018c8.316 0 16.289 3.371 22.17 9.373 5.873 6.001 9.179 14.14 9.179 22.627v64c0 8.487-3.306 16.626-9.179 22.627-5.881 6.002-13.853 9.373-22.17 9.373zM104.229 26.002c1.495-24.371 12.033-47.25 29.467-63.971s40.456-26.032 64.378-26.032h481.567c23.922 0 46.943 9.311 64.376 26.032 17.437 16.72 27.977 39.6 29.469 63.971l41.538 677.998h-752.33l41.535-677.998z" />
<glyph unicode="&#xe916;" glyph-name="pf-comment" horiz-adv-x="1103" d="M992.492 183.296l-64.512 59.904h-817.703v614.4h882.215v-674.304zM992.492 960h-882.215c-60.652 0-110.277-46.080-110.277-102.4v-614.4c0-56.32 49.625-102.4 110.277-102.4h771.938l220.554-204.8v921.6c0 56.32-49.625 102.4-110.277 102.4z" />
<glyph unicode="&#xe917;" glyph-name="pf-check" horiz-adv-x="1103" d="M1019.494 824.823l-67.458 54.295c-33.256 26.725-52.578 26.416-81.046-8.749l-490.313-605.089-228.178 189.581c-31.479 26.444-51.172 25.037-77.053-7.315l-52.072-67.797c-26.416-33.252-23.040-52.129 8.186-78.207l325.205-268.995c33.477-28.136 52.325-25.238 78.206 6.246l592.991 705.010c27.853 33.477 26.167 53.479-8.468 81.020z" />
<glyph unicode="&#xe918;" glyph-name="pf-calendar" horiz-adv-x="945" d="M196.927 566.154h127.238v-131.282h-127.242l0.004 131.282zM196.923 303.59h127.242v-131.282h-127.238l-0.004 131.282zM408.994 566.154h127.242v-131.282h-127.242v131.282zM408.994 303.59h127.242v-131.282h-127.242v131.282zM621.065 566.154h127.242v-131.282h-127.242v131.282zM621.065 303.59h127.242v-131.282h-127.242v131.282zM105.025-64h735.182c57.919 0 105.023 45.922 105.023 102.4v716.8c0 56.474-47.104 102.4-105.023 102.4h-105.029v102.4h-105.025v-102.4h-315.077v102.4h-105.025v-102.4h-105.026c-57.921 0-105.025-45.926-105.025-102.4v-716.8c0-56.478 47.104-102.4 105.025-102.4zM840.208 731.569l0.047-693.169h-735.23v693.169h735.182z" />
<glyph unicode="&#xe919;" glyph-name="pf-drag" horiz-adv-x="630" d="M236.308 841.846c0-65.255-52.899-118.154-118.154-118.154s-118.154 52.899-118.154 118.154c0 65.255 52.899 118.154 118.154 118.154s118.154-52.899 118.154-118.154zM236.308 448c0-65.255-52.899-118.154-118.154-118.154s-118.154 52.899-118.154 118.154c0 65.255 52.899 118.154 118.154 118.154s118.154-52.899 118.154-118.154zM236.308 54.154c0-65.255-52.899-118.154-118.154-118.154s-118.154 52.899-118.154 118.154c0 65.255 52.899 118.154 118.154 118.154s118.154-52.899 118.154-118.154zM630.154 841.846c0-65.255-52.899-118.154-118.154-118.154s-118.154 52.899-118.154 118.154c0 65.255 52.899 118.154 118.154 118.154s118.154-52.899 118.154-118.154zM630.154 448c0-65.255-52.899-118.154-118.154-118.154s-118.154 52.899-118.154 118.154c0 65.255 52.899 118.154 118.154 118.154s118.154-52.899 118.154-118.154zM630.154 54.154c0-65.255-52.899-118.154-118.154-118.154s-118.154 52.899-118.154 118.154c0 65.255 52.899 118.154 118.154 118.154s118.154-52.899 118.154-118.154z" />
<glyph unicode="&#xe91a;" glyph-name="pf-dots-horizontal" horiz-adv-x="1265" d="M933.647 357.647c-49.901 0-90.353 40.452-90.353 90.353s40.452 90.353 90.353 90.353c49.901 0 90.353-40.452 90.353-90.353s-40.452-90.353-90.353-90.353zM632.471 357.647c-49.901 0-90.353 40.452-90.353 90.353s40.452 90.353 90.353 90.353c49.901 0 90.353-40.452 90.353-90.353s-40.452-90.353-90.353-90.353zM331.294 357.647c-49.901 0-90.353 40.452-90.353 90.353s40.452 90.353 90.353 90.353c49.901 0 90.353-40.452 90.353-90.353s-40.452-90.353-90.353-90.353z" />
<glyph unicode="&#xe91b;" glyph-name="pf-link" d="M577.434 586.765l-204.737-204.734c-4.797-4.757-8.605-10.422-11.203-16.659s-3.937-12.926-3.937-19.684c0-6.754 1.338-13.447 3.937-19.684s6.406-11.897 11.203-16.654c4.758-4.799 10.419-8.606 16.656-11.203s12.927-3.938 19.684-3.938c6.757 0 13.447 1.341 19.684 3.938s11.898 6.405 16.656 11.203l204.737 204.734c9.635 9.638 15.053 22.71 15.053 36.34s-5.418 26.702-15.053 36.34c-9.64 9.638-22.714 15.053-36.343 15.053s-26.703-5.415-36.338-15.053zM525.745 171.688l-65.516-65.005c-36.779-37.897-86.222-60.933-138.898-64.707s-104.898 11.971-146.707 44.237c-22.097 18.209-40.13 40.848-52.932 66.462-12.802 25.609-20.090 53.62-21.392 82.227-1.302 28.602 3.409 57.162 13.831 83.828 10.422 26.671 26.322 50.856 46.673 71l72.681 73.193c4.797 4.757 8.605 10.417 11.203 16.654s3.936 12.926 3.936 19.685c0 6.757-1.338 13.447-3.936 19.684s-6.406 11.898-11.203 16.656c-4.758 4.797-10.419 8.605-16.656 11.204s-12.927 3.936-19.684 3.936c-6.757 0-13.447-1.338-19.684-3.936s-11.898-6.407-16.656-11.204l-65.003-65.516c-54.759-53.025-88.416-124.123-94.722-200.085s15.165-151.636 60.429-212.964c26.865-34.853 60.839-63.59 99.664-84.303s81.614-32.926 125.522-35.831c43.909-2.909 87.933 3.565 129.149 18.981 41.215 15.421 78.678 39.429 109.901 70.442l72.681 72.681c9.64 9.635 15.053 22.71 15.053 36.338 0 13.633-5.413 26.703-15.053 36.343-9.64 9.635-22.71 15.053-36.343 15.053-13.629 0-26.698-5.418-36.338-15.053zM903.48 897.47c-61.752 45.734-138.045 67.425-214.621 61.020s-148.205-40.467-201.5-95.825l-55.28-56.302c-6.319-4.593-11.601-10.462-15.508-17.226s-6.349-14.274-7.169-22.042c-0.82-7.768 0-15.622 2.407-23.053s6.349-14.274 11.568-20.085c4.758-4.797 10.419-8.605 16.657-11.203s12.927-3.936 19.684-3.936c6.756 0 13.445 1.338 19.682 3.936s11.902 6.406 16.659 11.203l66.537 67.051c36.575 38.064 85.96 61.224 138.617 65.005 52.652 3.781 104.839-12.085 146.479-44.532 22.263-18.211 40.439-40.909 53.341-66.614s20.247-53.841 21.551-82.573c1.303-28.733-3.463-57.417-13.982-84.185-10.524-26.768-26.568-51.018-47.090-71.171l-72.681-73.191c-4.799-4.762-8.606-10.422-11.203-16.659s-3.938-12.926-3.938-19.684c0-6.758 1.341-13.447 3.938-19.684s6.405-11.897 11.203-16.654c4.757-4.799 10.417-8.606 16.654-11.203 6.237-2.602 12.93-3.938 19.684-3.938 6.758 0 13.447 1.336 19.684 3.938 6.237 2.597 11.902 6.405 16.659 11.203l72.681 72.681c30.92 31.213 54.858 68.646 70.228 109.811 15.365 41.165 21.811 85.125 18.907 128.969s-15.090 86.57-35.752 125.35c-20.662 38.779-49.324 72.726-84.094 99.592z" />
<glyph unicode="&#xe91c;" glyph-name="pf-upload" horiz-adv-x="1331" d="M998.4-64h-707.2c-80.6 0-149.283 29.112-206.050 87.332-56.767 58.225-85.15 128.671-85.15 211.333 0 74.67 23.833 140.001 71.5 196.004 47.667 55.998 107.034 88.887 178.1 98.664v4c0 77.333 18.633 148.666 55.9 214s87.75 117.111 151.45 155.334c63.698 38.222 133.248 57.333 208.65 57.333 86.666 0 164.884-24.889 234.65-74.666s120.248-114.667 151.45-194.667c81.469-21.333 148.419-66.444 200.852-135.333s78.648-147.331 78.648-235.333c0-98.668-32.067-184.668-96.2-258.002s-143.002-115.333-236.6-125.998zM907.402 413.332l-217.103 193.334c-6.932 8-15.165 12-24.699 12s-17.766-4-24.699-12l-217.101-193.334c-6.933-7.997-9.1-18.442-6.5-31.334 2.6-12.887 7.367-19.333 14.3-19.333h150.8v-213.33c0-11.556 4.116-21.555 12.349-30.003 8.233-8.443 17.981-12.667 29.251-12.667h83.2c11.269 0 21.018 4.224 29.251 12.667 8.233 8.448 12.349 18.447 12.349 30.003v213.33h150.799c6.932 0 11.699 6.446 14.3 19.333 2.601 12.892 0.435 23.337-6.497 31.334z" />
<glyph unicode="&#xe91d;" glyph-name="pf-check-round" d="M512 960c-101.264 0-200.254-30.028-284.452-86.287s-149.822-136.223-188.574-229.779c-38.752-93.556-48.891-196.502-29.136-295.82s68.519-190.546 140.124-262.154c71.604-71.603 162.834-120.366 262.152-140.124 99.318-19.753 202.266-9.615 295.818 29.138 93.558 38.753 173.522 104.376 229.78 188.575s86.287 183.188 86.287 284.452c0 67.237-13.245 133.815-38.973 195.934s-63.442 118.561-110.986 166.105c-47.544 47.543-103.987 85.257-166.108 110.988-62.116 25.73-128.696 38.974-195.932 38.974zM512 38.4c-81.011 0-160.203 24.023-227.561 69.028-67.358 45.010-119.858 108.979-150.859 183.823s-39.113 157.203-23.309 236.658c15.804 79.455 54.815 152.438 112.099 209.722s130.267 96.294 209.722 112.099c79.455 15.804 161.814 7.693 236.658-23.308s138.813-83.501 183.823-150.86c45.005-67.358 69.028-146.55 69.028-227.561 0-108.631-43.151-212.818-119.967-289.633-76.815-76.81-181.002-119.967-289.633-119.967zM650.235 632.823l-193.533-256.001-83.457 108.033c-8.351 10.727-20.621 17.698-34.112 19.379s-27.096-2.067-37.823-10.419c-10.728-8.351-17.698-20.621-19.379-34.112-1.68-13.49 2.067-27.099 10.418-37.825l124.417-159.232c4.822-6.103 10.97-11.023 17.978-14.397 7.008-3.369 14.692-5.1 22.47-5.059 7.819 0.020 15.53 1.828 22.541 5.289s13.137 8.484 17.906 14.679l233.982 307.201c8.284 10.864 11.914 24.572 10.092 38.111-1.828 13.539-8.955 25.798-19.82 34.081-10.86 8.284-24.571 11.912-38.108 10.087s-25.8-8.952-34.084-19.815h0.512z" />
<glyph unicode="&#xe91e;" glyph-name="pf-pencil" d="M997.688 799.321l-134.417 134.419c-37.065 37.064-99.78 34.639-139.974-5.656-40.195-40.195-42.821-103.010-5.656-140.072l134.417-134.419c37.065-37.063 99.78-34.64 140.074 5.655 40.197 40.294 42.721 102.909 5.556 140.074zM140.781 345.671l268.838-268.838 436.886 436.784-268.838 268.838-436.886-436.784zM0-59.808l354.579 70.996-283.583 283.583-70.996-354.579z" />
<glyph unicode="&#xe91f;" glyph-name="pf-user-thin" d="M170.672 21.344c0 90.528 35.962 177.344 99.974 241.357 64.012 64.015 150.831 99.976 241.359 99.976s177.345-35.962 241.358-99.976c64.013-64.013 99.974-150.829 99.974-241.357h-85.331c0 67.898-26.97 133.011-74.982 181.018-48.006 48.013-113.123 74.982-181.019 74.982s-133.010-26.97-181.020-74.982c-48.009-48.006-74.98-113.12-74.98-181.018h-85.333zM512.005 405.344c-141.44 0-256 114.56-256 256s114.56 256 256 256c141.441 0 256.001-114.56 256.001-256s-114.56-256-256.001-256zM512.005 490.677c94.293 0 170.664 76.373 170.664 170.667s-76.371 170.666-170.664 170.666c-94.293 0-170.667-76.373-170.667-170.666s76.374-170.667 170.667-170.667z" />
<glyph unicode="&#xe920;" glyph-name="pf-filled-notification" horiz-adv-x="1117" d="M210.119 750.273c-116.050 0-210.119-94.069-210.119-210.119s94.069-210.12 210.119-210.12c9.092 0.013 17.88 3.274 24.781 9.195s11.459 14.111 12.853 23.095h0.604v349.698c0 10.142-4.028 19.87-11.199 27.043s-16.896 11.205-27.039 11.209zM1057.95 921.762c-0.009 10.14-4.040 19.864-11.208 27.034s-16.896 11.2-27.034 11.204c-8.76 0-16.738-3.066-23.18-8.016l-336.474-194.27h-303.316c-10.141 0-19.867-4.028-27.038-11.2s-11.2-16.897-11.2-27.038v-362.959h0.478c1.123-9.231 5.581-17.734 12.536-23.906s15.926-9.589 25.225-9.607h269.143l367.892-212.398c6.824-6.328 15.891-10.28 25.935-10.28 10.138 0.004 19.866 4.034 27.034 11.203s11.199 16.894 11.208 27.035c0 1.448-0.27 2.826-0.428 4.233h0.428v776.743h-0.223c0.037 0.745 0.223 1.449 0.223 2.222zM616.305 32.109l-0.534 0.928c-0.183 0.338-0.267 0.689-0.465 1.027s-0.45 0.59-0.647 0.9l-116.796 202.272-0.436-0.252c-3.061 4.225-6.959 7.775-11.452 10.426s-9.485 4.349-14.664 4.987v0.422h-101.565v-0.253c-5.617-0.419-11.070-2.086-15.961-4.88-4.35-2.51-8.162-5.852-11.219-9.835s-5.3-8.531-6.599-13.381c-1.3-4.851-1.631-9.91-0.975-14.888s2.288-9.779 4.8-14.127c0.9-1.546 1.997-2.897 3.080-4.261l-0.451-0.267 136.132-235.823c0.011-0.028 0.025-0.047 0.043-0.056l1.364-2.365 0.239 0.14c5.392-7.978 13.604-13.619 22.986-15.788 9.382-2.178 19.237-0.717 27.586 4.087 2.039 1.182 3.881 2.569 5.612 4.040l0.351-0.605 70.078 40.439-0.324 0.568c6.648 5.502 11.23 13.098 12.995 21.541 1.765 8.453 0.61 17.25-3.278 24.95l0.099 0.056z" />
<glyph unicode="&#xe921;" glyph-name="pf-reverse-arrow" horiz-adv-x="1365" d="M998.059 652.982h-577.976l315.261 307.018h-315.261l-420.082-409.444 420.082-409.444h315.261l-315.261 307.017h577.712c86.955 0 157.628-68.63 157.628-153.638 0-84.749-70.409-153.639-157.628-153.639v-204.852c202.974 0 367.539 160.401 367.539 358.231 0.265 198.353-164.301 358.751-367.275 358.751z" />
<glyph unicode="&#xe922;" glyph-name="pf-tag" d="M973.744 479.086l-33.829 357.257c-1.719 18.514-16.457 33.143-34.97 34.971l-357.718 33.829c-3.657 0-6.514-1.143-8.686-3.314l-535.2-535.2c-1.059-1.058-1.9-2.314-2.474-3.696s-0.869-2.864-0.869-4.362c0-1.497 0.295-2.978 0.869-4.361s1.414-2.639 2.474-3.696l415.771-415.773c2.172-2.172 5.029-3.313 8.114-3.313s5.943 1.141 8.114 3.313l535.198 535.201c2.289 2.4 3.43 5.715 3.204 9.143zM427.113 49.488l-309.029 309.026 456.801 456.8 282.283-26.742 26.748-282.285-456.803-456.798zM678.885 710.857c-55.428 0-100.571-45.143-100.571-100.571s45.143-100.571 100.571-100.571c55.425 0 100.569 45.143 100.569 100.571s-45.144 100.571-100.569 100.571zM678.885 573.714c-20.228 0-36.571 16.343-36.571 36.571s16.343 36.571 36.571 36.571c20.228 0 36.571-16.343 36.571-36.571s-16.343-36.571-36.571-36.571z" />
<glyph unicode="&#xe923;" glyph-name="pf-loading" d="M1007.334 341.333c0-2.222-0.223-3.777-0.667-4.667-28.444-119.111-88-215.666-178.668-289.666-90.666-74-196.888-111-318.667-111-64.889 0-127.667 12.222-188.333 36.667-60.666 24.444-114.778 59.333-162.334 104.666l-86-86c-8.444-8.445-18.445-12.667-30-12.667s-21.556 4.222-30 12.667c-8.444 8.445-12.667 18.445-12.667 30v298.667c0 11.555 4.222 21.555 12.667 30s18.445 12.667 30 12.667h298.667c11.555 0 21.555-4.222 30-12.667s12.667-18.445 12.667-30c0-11.555-4.222-21.555-12.667-30l-91.333-91.334c31.555-29.333 67.333-52 107.333-67.999 40-16.001 81.555-24 124.666-24 59.556 0 115.111 14.444 166.666 43.333 51.556 28.889 92.889 68.667 124.001 119.334 4.889 7.555 16.666 33.555 35.333 77.999 3.556 10.223 10.223 15.334 20.001 15.334h128c5.778 0 10.777-2.111 14.999-6.333s6.334-9.223 6.334-15zM1024 874.667v-298.667c0-11.555-4.222-21.555-12.667-30s-18.445-12.667-30-12.667h-298.667c-11.555 0-21.555 4.222-30 12.667s-12.667 18.445-12.667 30c0 11.555 4.222 21.555 12.667 30l92 92.001c-65.777 60.888-143.333 91.333-232.666 91.333-59.556 0-115.111-14.444-166.666-43.333s-92.889-68.667-124.001-119.334c-4.889-7.555-16.666-33.555-35.333-77.999-3.556-10.223-10.223-15.334-20.001-15.334h-132.666c-5.778 0-10.778 2.111-15 6.333s-6.333 9.223-6.333 15v4.667c28.889 119.111 88.889 215.666 180 289.666s197.778 111 320 111c64.889 0 128-12.333 189.333-37s115.778-59.444 163.334-104.334l86.667 86c8.445 8.444 18.445 12.667 30 12.667s21.555-4.222 30-12.667c8.445-8.444 12.667-18.445 12.667-30z" />
<glyph unicode="&#xe924;" glyph-name="pf-desktop" horiz-adv-x="1408" d="M704-3.763c-15.558 0-30.48 6.346-41.485 17.642-11.002 11.296-17.181 26.618-17.181 42.592s6.179 31.296 17.181 42.592c11.005 11.296 25.926 17.645 41.485 17.645s30.48-6.349 41.485-17.645c11.002-11.296 17.181-26.618 17.181-42.592s-6.179-31.296-17.181-42.592c-11.005-11.296-25.926-17.642-41.485-17.642zM234.667 839.529h938.668v-662.588h-938.668v662.588zM1173.334 56.47c31.117 0 60.963 12.691 82.966 35.286 22.003 22.592 34.365 53.232 34.365 85.184v662.588c0 31.951-12.362 62.593-34.365 85.186s-51.85 35.285-82.966 35.285h-938.668c-65.12 0-117.333-53.609-117.333-120.471v-662.588c0-31.952 12.362-62.592 34.366-85.184 22.004-22.595 51.848-35.286 82.967-35.286h-234.667c0-31.952 12.362-62.592 34.366-85.184 22.004-22.595 51.849-35.286 82.967-35.286h1173.332c31.12 0 60.963 12.691 82.97 35.286 22.003 22.592 34.365 53.232 34.365 85.184h-234.666z" />
<glyph unicode="&#xe925;" glyph-name="pf-help" d="M512 896c-247.42 0-448-200.58-448-448s200.58-448 448-448c247.42 0 448 200.58 448 448s-200.58 448-448 448zM384 448c0 25.316 7.507 50.063 21.572 71.113s34.056 37.456 57.444 47.144c23.389 9.688 49.126 12.223 73.956 7.284s47.636-17.13 65.538-35.031c17.901-17.901 30.092-40.708 35.031-65.538s2.404-50.567-7.284-73.956c-9.688-23.388-26.094-43.379-47.144-57.444s-45.797-21.572-71.113-21.572c-33.947 0-66.505 13.486-90.51 37.49s-37.49 56.562-37.49 90.51zM858.479 572.58l-172.659-10.58c-15.651 23.75-35.969 44.069-59.72 59.72l10.48 172.66c51.017-18.464 97.35-47.921 135.714-86.286s67.822-84.697 86.287-135.714l-0.102 0.2zM251.78 708.22c38.281 38.426 84.605 67.887 135.64 86.26l10.58-172.66c-23.796-15.669-44.151-36.023-59.82-59.82l-172.66 10.48c18.359 51.069 47.821 97.43 86.26 135.74zM165.52 323.42l172.66 10.48c15.68-23.76 36.033-44.080 59.82-59.72l-10.48-172.659c-51.007 18.452-97.333 47.895-135.696 86.241s-67.827 84.659-86.304 135.658zM772.22 187.78c-38.281-38.426-84.605-67.887-135.64-86.259l-10.48 172.659c23.751 15.651 44.069 35.969 59.72 59.72l172.659-10.48c-18.372-51.034-47.833-97.359-86.259-135.64z" />
<glyph unicode="&#xe926;" glyph-name="pf-card-success" horiz-adv-x="1126" d="M204.8 857.6c-56.553 0-102.4-45.847-102.4-102.4v-614.4c0-56.554 45.847-102.4 102.4-102.4h716.8c56.554 0 102.4 45.846 102.4 102.4v614.4c0 56.553-45.846 102.4-102.4 102.4h-716.8zM0 755.2c0 113.108 91.692 204.8 204.8 204.8h716.8c113.111 0 204.8-91.692 204.8-204.8v-614.4c0-113.108-91.689-204.8-204.8-204.8h-716.8c-113.108 0-204.8 91.692-204.8 204.8v614.4zM1024 550.4h-921.6v102.4h921.6v-102.4zM921.6 345.6h-204.8v-204.8h204.8v204.8z" />
<glyph unicode="&#xe927;" glyph-name="pf-icon-check-grey" horiz-adv-x="1103" d="M1019.494 824.823l-67.458 54.295c-33.256 26.725-52.578 26.416-81.046-8.749l-490.313-605.089-228.178 189.581c-31.479 26.444-51.172 25.037-77.053-7.315l-52.072-67.797c-26.416-33.252-23.040-52.129 8.186-78.207l325.205-268.995c33.477-28.136 52.325-25.238 78.206 6.246l592.991 705.010c27.853 33.477 26.167 53.479-8.468 81.020z" />
<glyph unicode="&#xe928;" glyph-name="pf-icon-delete-grey" horiz-adv-x="878" d="M846.365 896h-235.1l-18.416 37.4c-3.901 7.996-9.911 14.722-17.352 19.421s-16.020 7.186-24.771 7.179h-223.934c-8.731 0.034-17.294-2.443-24.709-7.147s-13.382-11.446-17.218-19.453l-18.416-37.4h-235.102c-8.314 0-16.287-3.371-22.166-9.373s-9.181-14.14-9.181-22.627v-64c0-8.487 3.303-16.627 9.181-22.627s13.852-9.373 22.166-9.373h815.018c8.316 0 16.289 3.371 22.17 9.373 5.873 6.001 9.179 14.14 9.179 22.627v64c0 8.487-3.306 16.626-9.179 22.627-5.881 6.002-13.853 9.373-22.17 9.373zM104.229 26.002c1.495-24.371 12.033-47.25 29.467-63.971s40.456-26.032 64.378-26.032h481.567c23.922 0 46.943 9.311 64.376 26.032 17.437 16.72 27.977 39.6 29.469 63.971l41.538 677.998h-752.33l41.535-677.998z" />
</font>
</defs>
</svg>
