<svg width="340" height="177" viewBox="0 0 340 177" fill="none" xmlns="http://www.w3.org/2000/svg">
<path opacity="0.3" d="M0 6C0 2.6863 2.68629 0 6 0H334C337.314 0 340 2.68629 340 6V164.5L0 135.5L0 6Z" fill="#C9D7E4"/>
<circle cx="169.5" cy="129.5" r="40.5721" stroke="#0532E6" stroke-width="13.8558"/>
<path d="M128.38 134.424C128.38 134.424 133.89 121.222 151.482 121.222C169.075 121.222 167.985 141.025 184.487 141.025C200.989 141.025 210.679 125.246 210.679 125.246" stroke="#0532E6" stroke-width="13.8558"/>
<mask id="mask0" mask-type="alpha" maskUnits="userSpaceOnUse" x="0" y="0" width="340" height="165">
<path opacity="0.3" d="M0 6C0 2.6863 2.68629 0 6 0H334C337.314 0 340 2.68629 340 6V164.5L0 135.5L0 6Z" fill="#C9D7E4"/>
</mask>
<g mask="url(#mask0)">
<g opacity="0.5">
<circle cx="79.2592" cy="70.3946" r="2.39458" transform="rotate(90 79.2592 70.3946)" fill="#0532E6"/>
<circle cx="67.2866" cy="70.3946" r="2.39458" transform="rotate(90 67.2866 70.3946)" fill="#0532E6"/>
<circle cx="55.3134" cy="70.3946" r="2.39458" transform="rotate(90 55.3134 70.3946)" fill="#0532E6"/>
<circle cx="43.3408" cy="70.3946" r="2.39458" transform="rotate(90 43.3408 70.3946)" fill="#0532E6"/>
<circle cx="31.3676" cy="70.3946" r="2.39458" transform="rotate(90 31.3676 70.3946)" fill="#0532E6"/>
<circle cx="19.395" cy="70.3946" r="2.39458" transform="rotate(90 19.395 70.3946)" fill="#0532E6"/>
<circle cx="79.2592" cy="83.1661" r="2.39458" transform="rotate(90 79.2592 83.1661)" fill="#0532E6"/>
<circle cx="67.2866" cy="83.1661" r="2.39458" transform="rotate(90 67.2866 83.1661)" fill="#0532E6"/>
<circle cx="55.3134" cy="83.1661" r="2.39458" transform="rotate(90 55.3134 83.1661)" fill="#0532E6"/>
<circle cx="43.3408" cy="83.1661" r="2.39458" transform="rotate(90 43.3408 83.1661)" fill="#0532E6"/>
<circle cx="31.3676" cy="83.1661" r="2.39458" transform="rotate(90 31.3676 83.1661)" fill="#0532E6"/>
<circle cx="19.395" cy="83.1661" r="2.39458" transform="rotate(90 19.395 83.1661)" fill="#0532E6"/>
<circle cx="79.2592" cy="95.9366" r="2.39458" transform="rotate(90 79.2592 95.9366)" fill="#0532E6"/>
<circle cx="67.2866" cy="95.9366" r="2.39458" transform="rotate(90 67.2866 95.9366)" fill="#0532E6"/>
<circle cx="55.3134" cy="95.9366" r="2.39458" transform="rotate(90 55.3134 95.9366)" fill="#0532E6"/>
<circle cx="43.3408" cy="95.9366" r="2.39458" transform="rotate(90 43.3408 95.9366)" fill="#0532E6"/>
<circle cx="31.3676" cy="95.9366" r="2.39458" transform="rotate(90 31.3676 95.9366)" fill="#0532E6"/>
<circle cx="19.395" cy="95.9366" r="2.39458" transform="rotate(90 19.395 95.9366)" fill="#0532E6"/>
<circle cx="79.2592" cy="108.708" r="2.39458" transform="rotate(90 79.2592 108.708)" fill="#0532E6"/>
<circle cx="67.2866" cy="108.708" r="2.39458" transform="rotate(90 67.2866 108.708)" fill="#0532E6"/>
<circle cx="55.3134" cy="108.708" r="2.39458" transform="rotate(90 55.3134 108.708)" fill="#0532E6"/>
<circle cx="43.3408" cy="108.708" r="2.39458" transform="rotate(90 43.3408 108.708)" fill="#0532E6"/>
<circle cx="31.3676" cy="108.708" r="2.39458" transform="rotate(90 31.3676 108.708)" fill="#0532E6"/>
<circle cx="19.395" cy="108.708" r="2.39458" transform="rotate(90 19.395 108.708)" fill="#0532E6"/>
<circle cx="79.2592" cy="121.479" r="2.39458" transform="rotate(90 79.2592 121.479)" fill="#0532E6"/>
<circle cx="67.2866" cy="121.479" r="2.39458" transform="rotate(90 67.2866 121.479)" fill="#0532E6"/>
<circle cx="55.3134" cy="121.479" r="2.39458" transform="rotate(90 55.3134 121.479)" fill="#0532E6"/>
<circle cx="43.3408" cy="121.479" r="2.39458" transform="rotate(90 43.3408 121.479)" fill="#0532E6"/>
<circle cx="31.3676" cy="121.479" r="2.39458" transform="rotate(90 31.3676 121.479)" fill="#0532E6"/>
<circle cx="19.395" cy="121.479" r="2.39458" transform="rotate(90 19.395 121.479)" fill="#0532E6"/>
<circle cx="79.2592" cy="134.25" r="2.39458" transform="rotate(90 79.2592 134.25)" fill="#0532E6"/>
<circle cx="67.2866" cy="134.25" r="2.39458" transform="rotate(90 67.2866 134.25)" fill="#0532E6"/>
<circle cx="55.3134" cy="134.25" r="2.39458" transform="rotate(90 55.3134 134.25)" fill="#0532E6"/>
<circle cx="43.3408" cy="134.25" r="2.39458" transform="rotate(90 43.3408 134.25)" fill="#0532E6"/>
<circle cx="31.3676" cy="134.25" r="2.39458" transform="rotate(90 31.3676 134.25)" fill="#0532E6"/>
<circle cx="19.395" cy="134.25" r="2.39458" transform="rotate(90 19.395 134.25)" fill="#0532E6"/>
<circle cx="79.2592" cy="147.022" r="2.39458" transform="rotate(90 79.2592 147.022)" fill="#0532E6"/>
<circle cx="67.2866" cy="147.022" r="2.39458" transform="rotate(90 67.2866 147.022)" fill="#0532E6"/>
<circle cx="55.3134" cy="147.022" r="2.39458" transform="rotate(90 55.3134 147.022)" fill="#0532E6"/>
<circle cx="43.3408" cy="147.022" r="2.39458" transform="rotate(90 43.3408 147.022)" fill="#0532E6"/>
<circle cx="31.3676" cy="147.022" r="2.39458" transform="rotate(90 31.3676 147.022)" fill="#0532E6"/>
<circle cx="19.395" cy="147.022" r="2.39458" transform="rotate(90 19.395 147.022)" fill="#0532E6"/>
<circle cx="79.2592" cy="159.792" r="2.39458" transform="rotate(90 79.2592 159.792)" fill="#0532E6"/>
<circle cx="67.2866" cy="159.792" r="2.39458" transform="rotate(90 67.2866 159.792)" fill="#0532E6"/>
<circle cx="55.3134" cy="159.792" r="2.39458" transform="rotate(90 55.3134 159.792)" fill="#0532E6"/>
<circle cx="43.3408" cy="159.792" r="2.39458" transform="rotate(90 43.3408 159.792)" fill="#0532E6"/>
<circle cx="31.3676" cy="159.792" r="2.39458" transform="rotate(90 31.3676 159.792)" fill="#0532E6"/>
<circle cx="19.395" cy="159.792" r="2.39458" transform="rotate(90 19.395 159.792)" fill="#0532E6"/>
</g>
<rect x="253" y="-12" width="104" height="104" fill="#0532E6" fill-opacity="0.3"/>
</g>
</svg>
