<svg width="130" height="45" viewBox="0 0 130 45" fill="none" xmlns="http://www.w3.org/2000/svg">
<g clip-path="url(#clip0)">
<path d="M69.0001 5.58398C72.6829 5.58398 75.6685 8.56951 75.6685 12.2531C75.6685 15.9359 72.6829 18.9214 69.0001 18.9214C65.3173 18.9214 62.3318 15.9359 62.3318 12.2531C62.3318 8.56951 65.3173 5.58398 69.0001 5.58398Z" fill="#DFF6FD"/>
<path d="M74.1188 16.5253C72.8963 17.99 71.0569 18.9211 69.0001 18.9211C66.9432 18.9211 65.1038 17.99 63.8813 16.5253C63.8884 15.091 64.4867 13.7969 65.4434 12.8713L67.2292 11.6123H70.9969L72.5567 12.8713C73.5134 13.7969 74.1117 15.091 74.1188 16.5253Z" fill="#FEE97D"/>
<path d="M72.5567 12.8713L70.9969 11.6123H67.9617L66.329 12.247L65.4434 12.8713C64.4867 13.7969 63.8884 15.091 63.8813 16.5253C64.328 17.0606 64.8573 17.5241 65.4493 17.8973C65.4923 17.3641 65.6172 16.8542 65.8111 16.3798C66.0792 15.7241 66.7976 15.3785 67.4799 15.5691C67.9637 15.7043 68.4735 15.7768 69.0001 15.7768C70.7223 15.7768 72.2667 15.0055 73.3093 13.7914C73.0941 13.4562 72.8417 13.1471 72.5567 12.8713Z" fill="#FEE45A"/>
<path d="M69 5.58398C66.5079 5.58398 64.4878 7.60412 64.4878 10.0962C64.4878 10.1974 64.4923 10.2977 64.4989 10.3974L64.8529 10.2475L65.5646 12.3352L68.4273 14.1383L69.6293 14.3949H70.3728C72.1934 13.8139 73.5121 12.1093 73.5121 10.0961C73.5121 7.60412 71.4919 5.58398 69 5.58398Z" fill="#FFE5C2"/>
<path d="M67.2334 10.0962C67.2334 8.08296 68.5533 6.37797 70.3739 5.79699C69.941 5.65886 69.4787 5.58398 69 5.58398C66.5079 5.58398 64.4878 7.60412 64.4878 10.0962C64.4878 12.5881 66.5079 14.6083 69 14.6083C69.4787 14.6083 69.941 14.5331 70.374 14.3949C68.5534 13.814 67.2334 12.1094 67.2334 10.0962Z" fill="#FED2A4"/>
<path d="M81.6935 18.2285C85.3763 18.2285 88.3618 21.214 88.3618 24.8976C88.3618 28.5805 85.3763 31.566 81.6935 31.566C78.0107 31.566 75.0251 28.5805 75.0251 24.8976C75.0251 21.214 78.0107 18.2285 81.6935 18.2285Z" fill="#DFF6FD"/>
<path d="M86.8122 29.1699C85.5898 30.6346 83.7504 31.5656 81.6935 31.5656C79.6367 31.5656 77.7972 30.6346 76.5748 29.1699C76.5818 27.7355 77.1802 26.4414 78.1369 25.5159L79.9226 24.2568H83.6904L85.2501 25.5159C86.2069 26.4414 86.8052 27.7355 86.8122 29.1699Z" fill="#5F99D7"/>
<path d="M85.2501 25.5159L83.6904 24.2568H80.6552L79.0225 24.8915L78.1369 25.5159C77.1802 26.4414 76.5818 27.7355 76.5748 29.1699C77.0215 29.7051 77.5508 30.1686 78.1428 30.5419C78.1858 30.0086 78.3107 29.4987 78.5046 29.0243C78.7727 28.3686 79.4911 28.023 80.1734 28.2137C80.6572 28.3488 81.1669 28.4214 81.6935 28.4214C83.4157 28.4214 84.9602 27.6501 86.0028 26.4359C85.7876 26.1007 85.5352 25.7917 85.2501 25.5159Z" fill="#3C87D0"/>
<path d="M81.6934 18.2285C79.2014 18.2285 77.1813 20.2487 77.1813 22.7407C77.1813 22.842 77.1858 22.9422 77.1924 23.0419L77.5464 22.8921L78.2581 24.9798L81.1208 26.7828L82.3228 27.0394H83.0663C84.8868 26.4584 86.2055 24.7538 86.2055 22.7406C86.2056 20.2487 84.1854 18.2285 81.6934 18.2285Z" fill="#FFE5C2"/>
<path d="M79.9269 22.7407C79.9269 20.7275 81.2469 19.0225 83.0675 18.4415C82.6345 18.3034 82.1722 18.2285 81.6934 18.2285C79.2014 18.2285 77.1813 20.2487 77.1813 22.7407C77.1813 25.2326 79.2014 27.2529 81.6934 27.2529C82.1722 27.2529 82.6345 27.1776 83.0675 27.0395C81.2469 26.4586 79.9269 24.754 79.9269 22.7407Z" fill="#FED2A4"/>
<path d="M69.0001 31.0781C72.6829 31.0781 75.6685 34.0636 75.6685 37.7472C75.6685 41.4301 72.6829 44.4156 69.0001 44.4156C65.3173 44.4156 62.3318 41.4301 62.3318 37.7472C62.3318 34.0636 65.3173 31.0781 69.0001 31.0781Z" fill="#DFF6FD"/>
<path d="M74.1188 42.0204C72.8963 43.4852 71.0569 44.4162 69.0001 44.4162C66.9432 44.4162 65.1038 43.4852 63.8813 42.0204C63.8884 40.5861 64.4867 39.292 65.4434 38.3665L67.2292 37.1074H70.9969L72.5567 38.3665C73.5134 39.292 74.1117 40.5861 74.1188 42.0204Z" fill="#ADE194"/>
<path d="M72.5567 38.3665L70.9969 37.1074H67.9617L66.329 37.7421L65.4434 38.3665C64.4867 39.292 63.8884 40.5861 63.8813 42.0204C64.328 42.5557 64.8573 43.0192 65.4493 43.3924C65.4923 42.8592 65.6172 42.3493 65.8111 41.8749C66.0792 41.2192 66.7976 40.8736 67.4799 41.0643C67.9637 41.1994 68.4735 41.272 69.0001 41.272C70.7223 41.272 72.2667 40.5007 73.3093 39.2865C73.0941 38.9513 72.8417 38.6423 72.5567 38.3665Z" fill="#97DA7B"/>
<path d="M69 31.0791C66.5079 31.0791 64.4878 33.0992 64.4878 35.5913C64.4878 35.6926 64.4923 35.7928 64.4989 35.8925L64.8529 35.7427L65.5646 37.8303L68.4273 39.6334L69.6293 39.89H70.3728C72.1934 39.309 73.5121 37.6044 73.5121 35.5912C73.5121 33.0993 71.4919 31.0791 69 31.0791Z" fill="#FFE5C2"/>
<path d="M67.2334 35.5913C67.2334 33.5781 68.5534 31.8731 70.374 31.2921C69.941 31.154 69.4787 31.0791 69 31.0791C66.5079 31.0791 64.4878 33.0992 64.4878 35.5913C64.4878 38.0832 66.5079 40.1034 69 40.1034C69.4787 40.1034 69.941 40.0282 70.374 39.8901C68.5535 39.3091 67.2334 37.6045 67.2334 35.5913Z" fill="#FED2A4"/>
<path d="M56.3065 18.2285C59.9893 18.2285 62.9749 21.214 62.9749 24.8976C62.9749 28.5805 59.9893 31.566 56.3065 31.566C52.6237 31.566 49.6382 28.5805 49.6382 24.8976C49.6382 21.214 52.6237 18.2285 56.3065 18.2285Z" fill="#DFF6FD"/>
<path d="M61.4252 29.1699C60.2027 30.6346 58.3633 31.5656 56.3064 31.5656C54.2496 31.5656 52.4102 30.6346 51.1877 29.1699C51.1948 27.7355 51.7931 26.4414 52.7498 25.5159L54.5355 24.2568H58.3033L59.8631 25.5159C60.8198 26.4414 61.4181 27.7355 61.4252 29.1699Z" fill="#F37C7C"/>
<path d="M59.8631 25.5159L58.3033 24.2568H55.2681L53.6354 24.8915L52.7498 25.5159C51.7931 26.4414 51.1948 27.7355 51.1877 29.1699C51.6344 29.7051 52.1637 30.1686 52.7557 30.5419C52.7987 30.0086 52.9236 29.4987 53.1175 29.0243C53.3856 28.3686 54.104 28.023 54.7863 28.2137C55.2701 28.3488 55.7799 28.4214 56.3065 28.4214C58.0287 28.4214 59.5731 27.6501 60.6157 26.4359C60.4005 26.1007 60.1481 25.7917 59.8631 25.5159Z" fill="#EE6161"/>
<path d="M56.3066 18.2285C53.8146 18.2285 51.7944 20.2487 51.7944 22.7407C51.7944 22.842 51.799 22.9422 51.8056 23.0419L52.1595 22.8921L52.8712 24.9798L55.734 26.7828L56.936 27.0394H57.6795C59.5 26.4584 60.8187 24.7538 60.8187 22.7406C60.8188 20.2487 58.7986 18.2285 56.3066 18.2285Z" fill="#FFE5C2"/>
<path d="M54.5401 22.7407C54.5401 20.7275 55.86 19.0225 57.6806 18.4415C57.2477 18.3034 56.7854 18.2285 56.3066 18.2285C53.8146 18.2285 51.7944 20.2487 51.7944 22.7407C51.7944 25.2326 53.8146 27.2529 56.3066 27.2529C56.7854 27.2529 57.2477 27.1776 57.6806 27.0395C55.86 26.4586 54.5401 24.754 54.5401 22.7407Z" fill="#FED2A4"/>
<path d="M69.0002 19.5054C72.2921 19.5054 75.1761 17.2842 76.0135 14.104C76.0957 13.7919 75.9094 13.4723 75.5972 13.3901C75.2851 13.3081 74.9655 13.4942 74.8833 13.8064C74.7805 14.1969 74.6399 14.5696 74.4678 14.9224C74.239 14.1499 73.8461 13.4342 73.3075 12.8156C73.8065 12.0281 74.0968 11.0959 74.0968 10.0965C74.0968 9.58175 74.0199 9.0846 73.8773 8.61589C74.4969 9.44533 74.9119 10.4409 75.0405 11.5332C75.0783 11.8538 75.3682 12.0832 75.6892 12.0452C76.0097 12.0075 76.2389 11.717 76.2011 11.3966C75.7715 7.74992 72.6758 5 69.0002 5C65.001 5 61.7474 8.25353 61.7474 12.2527C61.7474 16.2518 65.001 19.5054 69.0002 19.5054ZM69.0002 18.3368C67.2037 18.3368 65.5873 17.5536 64.4726 16.3114C64.5215 15.3657 64.8596 14.4766 65.4432 13.7415C66.3623 14.6387 67.6174 15.1929 69.0001 15.1929C70.3829 15.1929 71.6379 14.6386 72.557 13.7415C73.1416 14.4776 73.4797 15.3684 73.5278 16.3158C72.401 17.5694 70.7714 18.3368 69.0002 18.3368ZM69.0002 14.0243C66.8344 14.0243 65.0723 12.2623 65.0723 10.0964C65.0723 7.9306 66.8344 6.16858 69.0002 6.16858C71.166 6.16858 72.928 7.9306 72.928 10.0964C72.928 12.2623 71.1659 14.0243 69.0002 14.0243ZM64.1218 8.62143C63.9802 9.0885 63.9036 9.58362 63.9036 10.0964C63.9036 11.0957 64.1938 12.028 64.6928 12.8154C64.1545 13.4339 63.763 14.1497 63.5344 14.922C63.1389 14.1156 62.9161 13.2097 62.9161 12.2526C62.9161 10.8926 63.3648 9.63558 64.1218 8.62143Z" fill="black"/>
<path d="M69.0002 30.4951C65.001 30.4951 61.7474 33.7487 61.7474 37.7479C61.7474 41.747 65.001 45.0006 69.0002 45.0006C72.9994 45.0006 76.2529 41.747 76.2529 37.7479C76.2529 33.7487 72.9993 30.4951 69.0002 30.4951ZM65.0723 35.5917C65.0723 33.4259 66.8344 31.6639 69.0002 31.6639C71.166 31.6639 72.928 33.4259 72.928 35.5917C72.928 37.7575 71.166 39.5195 69.0002 39.5195C66.8344 39.5195 65.0723 37.7574 65.0723 35.5917ZM64.1225 34.1155C63.9807 34.583 63.9037 35.0784 63.9037 35.5916C63.9037 36.5911 64.1941 37.5235 64.6931 38.3112C64.1548 38.9298 63.7634 39.6457 63.5349 40.4181C63.1392 39.6114 62.9162 38.7053 62.9162 37.7479C62.9161 36.3874 63.365 35.1299 64.1225 34.1155ZM69.0002 43.832C67.2037 43.832 65.5873 43.0488 64.4726 41.8066C64.5215 40.8609 64.8596 39.9718 65.4432 39.2367C66.3623 40.1339 67.6174 40.6881 69.0001 40.6881C70.3826 40.6881 71.6376 40.1339 72.5567 39.237C73.1405 39.9718 73.4789 40.8607 73.5279 41.8064C72.4132 43.0487 70.7967 43.832 69.0002 43.832ZM74.4666 40.4159C74.2378 39.6441 73.8457 38.9289 73.3075 38.3108C73.8064 37.5233 74.0966 36.591 74.0966 35.5917C74.0966 35.0785 74.0196 34.5831 73.8778 34.1155C74.6352 35.13 75.0842 36.3875 75.0842 37.7479C75.0842 38.7045 74.8617 39.6098 74.4666 40.4159Z" fill="black"/>
<path d="M81.6935 17.7471C77.6943 17.7471 74.4408 21.0007 74.4408 24.9998C74.4408 28.999 77.6943 32.2526 81.6935 32.2526C85.6928 32.2526 88.9463 28.999 88.9463 24.9998C88.9463 21.0007 85.6927 17.7471 81.6935 17.7471ZM87.7776 24.9998C87.7776 25.9573 87.5546 26.8634 87.1589 27.67C86.9301 26.898 86.5382 26.1827 85.9998 25.5643C86.4994 24.7764 86.79 23.8436 86.79 22.8436C86.79 22.3304 86.7129 21.8349 86.5712 21.3674C87.3286 22.3819 87.7776 23.6393 87.7776 24.9998ZM77.7657 22.8436C77.7657 20.6777 79.5277 18.9157 81.6935 18.9157C83.8594 18.9157 85.6214 20.6777 85.6214 22.8436C85.6214 25.0094 83.8594 26.7714 81.6935 26.7714C79.5277 26.7714 77.7657 25.0094 77.7657 22.8436ZM76.8158 21.3674C76.674 21.8349 76.597 22.3304 76.597 22.8436C76.597 23.8432 76.8874 24.7756 77.3866 25.5633C76.8483 26.1816 76.4565 26.8969 76.2276 27.6689C75.8323 26.8625 75.6095 25.9568 75.6095 24.9998C75.6095 23.6393 76.0584 22.3819 76.8158 21.3674ZM81.6935 31.0839C79.8971 31.0839 78.2807 30.3008 77.1659 29.0586C77.2149 28.1128 77.553 27.2238 78.1365 26.4887C79.0557 27.3858 80.3108 27.9401 81.6935 27.9401C83.0762 27.9401 84.3314 27.3857 85.2505 26.4887C85.8341 27.2237 86.1722 28.1128 86.2211 29.0586C85.1064 30.3008 83.49 31.0839 81.6935 31.0839Z" fill="black"/>
<path d="M56.3066 17.7471C52.3074 17.7471 49.0538 21.0007 49.0538 24.9998C49.0538 28.999 52.3074 32.2526 56.3066 32.2526C60.3058 32.2526 63.5593 28.999 63.5593 24.9998C63.5593 21.0007 60.3058 17.7471 56.3066 17.7471ZM62.3907 24.9998C62.3907 25.9566 62.168 26.862 61.7728 27.6682C61.5444 26.8973 61.1532 26.183 60.6163 25.5653C61.1147 24.7765 61.4031 23.8428 61.4031 22.8436C61.4031 22.3304 61.326 21.8349 61.1843 21.3674C61.9417 22.3819 62.3907 23.6393 62.3907 24.9998ZM51.4289 21.3674C51.2871 21.8349 51.2101 22.3304 51.2101 22.8436C51.2101 23.823 51.4923 24.7627 51.9981 25.5638C51.4604 26.182 51.0691 26.8972 50.8406 27.669C50.4452 26.8626 50.2225 25.9569 50.2225 24.9999C50.2225 23.6394 50.6715 22.3819 51.4289 21.3674ZM56.3066 31.0839C54.5101 31.0839 52.8937 30.3008 51.779 29.0586C51.8278 28.1137 52.1654 27.2253 52.748 26.4907C53.068 26.8032 53.4315 27.0763 53.833 27.2996C54.115 27.4562 54.4708 27.3548 54.6277 27.0729C54.7846 26.7909 54.6831 26.4351 54.401 26.2783C53.1536 25.5845 52.3787 24.2684 52.3787 22.8437C52.3787 20.6778 54.1408 18.9158 56.3066 18.9158C58.4724 18.9158 60.2344 20.6778 60.2344 22.8437C60.2344 24.9353 58.5999 26.6583 56.513 26.7661C56.1907 26.7828 55.9431 27.0575 55.9596 27.3798C55.9758 27.6919 56.2339 27.934 56.5427 27.934C56.5529 27.934 56.5631 27.9338 56.5734 27.9332C57.8577 27.8668 59.0095 27.3286 59.8662 26.4921C60.4482 27.2264 60.7853 28.1143 60.8342 29.0586C59.7195 30.3008 58.103 31.0839 56.3066 31.0839Z" fill="black"/>
<path d="M77.6703 12.5129C79.1697 13.5514 80.4586 14.8367 81.5012 16.333C81.6148 16.496 81.7965 16.5834 81.9811 16.5834C82.0964 16.5834 82.2129 16.5492 82.3147 16.4783C82.5794 16.2939 82.6445 15.9297 82.46 15.6649C81.3376 14.0539 79.95 12.6702 78.3358 11.5522C78.0706 11.3686 77.7065 11.4345 77.5227 11.6999C77.339 11.9651 77.4051 12.3291 77.6703 12.5129Z" fill="black"/>
<path d="M82.3145 33.5209C82.0498 33.3365 81.6856 33.4016 81.5011 33.6662C80.4585 35.1626 79.1695 36.4479 77.6702 37.4864C77.4049 37.6701 77.3389 38.0341 77.5226 38.2995C77.6361 38.4633 77.8182 38.5511 78.0034 38.5511C78.1182 38.5511 78.2341 38.5173 78.3357 38.447C79.9499 37.329 81.3375 35.9453 82.4599 34.3344C82.6443 34.0696 82.5793 33.7054 82.3145 33.5209Z" fill="black"/>
<path d="M60.3321 37.4345C58.866 36.4059 57.603 35.139 56.5785 33.6692C56.3939 33.4044 56.0297 33.3394 55.765 33.5241C55.5002 33.7085 55.4353 34.0728 55.6198 34.3375C56.7228 35.9199 58.0824 37.2837 59.6609 38.3912C59.763 38.4629 59.8801 38.4972 59.996 38.4972C60.1799 38.4972 60.3612 38.4105 60.4748 38.2485C60.6602 37.9843 60.5963 37.6199 60.3321 37.4345Z" fill="black"/>
<path d="M55.765 16.4761C55.8668 16.5471 55.9833 16.5812 56.0987 16.5812C56.2833 16.5812 56.4649 16.4939 56.5785 16.3309C57.603 14.8612 58.866 13.5943 60.3321 12.5656C60.5963 12.3803 60.6602 12.0158 60.4748 11.7517C60.2894 11.4874 59.9249 11.4237 59.6609 11.609C58.0824 12.7165 56.7228 14.0804 55.6198 15.6626C55.4353 15.9274 55.5002 16.2916 55.765 16.4761Z" fill="black"/>
</g>
<circle cx="27" cy="36" r="5" fill="#606974" fill-opacity="0.15"/>
<circle cx="35.5" cy="8.5" r="3.5" fill="#606974" fill-opacity="0.15"/>
<circle cx="98" cy="5" r="5" fill="#606974" fill-opacity="0.15"/>
<circle cx="126.5" cy="7.5" r="3.5" fill="#606974" fill-opacity="0.1"/>
<circle cx="118" cy="32" r="6" fill="#606974" fill-opacity="0.1"/>
<circle cx="5" cy="15" r="5" fill="#606974" fill-opacity="0.1"/>
<defs>
<clipPath id="clip0">
<rect width="40" height="40" fill="white" transform="translate(49 5)"/>
</clipPath>
</defs>
</svg>
