<svg width="115" height="109" viewBox="0 0 115 109" fill="none" xmlns="http://www.w3.org/2000/svg">
<path d="M112.888 22.477L96.3703 5.9644C95.8597 5.45193 95.2527 5.04552 94.5844 4.76855C93.9161 4.49159 93.1996 4.34954 92.4762 4.35059H26.3818C25.6584 4.34954 24.9419 4.49159 24.2736 4.76855C23.6053 5.04552 22.9984 5.45193 22.4878 5.9644L5.96967 22.477C5.45506 22.9874 5.04692 23.595 4.76895 24.2644C4.49098 24.9338 4.34869 25.6517 4.35036 26.3766V97.9843C4.35036 104.06 9.29091 109 15.3661 109H103.492C109.567 109 114.508 104.06 114.508 97.9843V26.3766C114.509 25.6517 114.367 24.9338 114.089 24.2644C113.811 23.595 113.403 22.9874 112.888 22.477ZM28.6621 15.3663H90.196L95.6983 20.8687H23.1597L28.6621 15.3663ZM15.3661 97.9843V31.8844H103.492L103.503 97.9843H15.3661Z" fill="#D7E0E9"/>
<path d="M75.9528 59.4291H42.9056V48.4133H31.8899V70.4448H86.9686V48.4133H75.9528V59.4291Z" fill="#D7E0E9"/>
<path d="M108.538 18.1264L92.0199 1.61381C91.5093 1.10134 90.9024 0.694931 90.2341 0.417967C89.5658 0.141002 88.8493 -0.00104346 88.1259 5.77045e-06H22.0315C21.3081 -0.00104346 20.5916 0.141002 19.9233 0.417967C19.255 0.694931 18.648 1.10134 18.1374 1.61381L1.61933 18.1264C1.10471 18.6368 0.696582 19.2444 0.418608 19.9138C0.140634 20.5832 -0.00164872 21.3011 1.44132e-05 22.026V93.6338C1.44132e-05 99.7089 4.94057 104.649 11.0157 104.649H99.1416C105.217 104.649 110.157 99.7089 110.157 93.6338V22.026C110.159 21.3011 110.017 20.5832 109.739 19.9138C109.461 19.2444 109.053 18.6368 108.538 18.1264ZM24.3117 11.0157H85.8456L91.348 16.5181H18.8094L24.3117 11.0157ZM11.0157 93.6338V27.5338H99.1416L99.1526 93.6338H11.0157Z" fill="#C0CFDE"/>
<path d="M71.6022 55.0786H38.555V44.0629H27.5393V66.0943H82.618V44.0629H71.6022V55.0786Z" fill="#C0CFDE"/>
</svg>
