<svg width="112" height="100" viewBox="0 0 112 100" fill="none" xmlns="http://www.w3.org/2000/svg">
<path d="M86.5923 48.6715C90.0436 42.79 91.5341 35.9629 90.848 29.1782C89.8337 19.0689 84.1897 10.1325 74.9643 4.01819L68.7027 13.4589C75.0437 17.6635 78.9027 23.6532 79.5713 30.3115C79.8797 33.4061 79.4944 36.5304 78.4436 39.4574C77.3928 42.3844 75.7029 45.0404 73.4967 47.2322L66.742 53.9869L75.9107 56.6785C99.892 63.7052 100.17 87.8225 100.17 88.0662H111.503C111.503 77.9285 106.086 58.1179 86.5923 48.6715Z" fill="#D7E0E9"/>
<path d="M46.3363 54.0661C58.837 54.0661 69.003 43.9001 69.003 31.3994C69.003 18.8987 58.837 8.73273 46.3363 8.73273C33.8357 8.73273 23.6697 18.8987 23.6697 31.3994C23.6697 43.9001 33.8357 54.0661 46.3363 54.0661ZM46.3363 20.0661C52.5867 20.0661 57.6697 25.1491 57.6697 31.3994C57.6697 37.6497 52.5867 42.7327 46.3363 42.7327C40.086 42.7327 35.003 37.6497 35.003 31.3994C35.003 25.1491 40.086 20.0661 46.3363 20.0661ZM54.8363 59.7327H37.8363C19.0853 59.7327 3.83635 74.9817 3.83635 93.7327V99.3994H15.1697V93.7327C15.1697 81.232 25.3357 71.0661 37.8363 71.0661H54.8363C67.337 71.0661 77.503 81.232 77.503 93.7327V99.3994H88.8363V93.7327C88.8363 74.9817 73.5873 59.7327 54.8363 59.7327Z" fill="#D7E0E9"/>
<path d="M83.0893 45.6054C86.5406 39.7239 88.031 32.8968 87.345 26.1121C86.3306 16.0028 80.6866 7.06642 71.4613 0.952087L65.1996 10.3928C71.5406 14.5974 75.3996 20.5871 76.0683 27.2454C76.3766 30.34 75.9914 33.4643 74.9406 36.3913C73.8898 39.3183 72.1998 41.9743 69.9936 44.1661L63.239 50.9208L72.4076 53.6124C96.389 60.6391 96.6666 84.7564 96.6666 85.0001H108C108 74.8624 102.583 55.0518 83.0893 45.6054Z" fill="#C0CFDE"/>
<path d="M42.8333 51C55.334 51 65.5 40.834 65.5 28.3333C65.5 15.8326 55.334 5.66663 42.8333 5.66663C30.3326 5.66663 20.1666 15.8326 20.1666 28.3333C20.1666 40.834 30.3326 51 42.8333 51ZM42.8333 17C49.0836 17 54.1666 22.083 54.1666 28.3333C54.1666 34.5836 49.0836 39.6666 42.8333 39.6666C36.583 39.6666 31.5 34.5836 31.5 28.3333C31.5 22.083 36.583 17 42.8333 17ZM51.3333 56.6666H34.3333C15.5823 56.6666 0.333313 71.9156 0.333313 90.6666V96.3333H11.6666V90.6666C11.6666 78.1659 21.8326 67.9999 34.3333 67.9999H51.3333C63.834 67.9999 74 78.1659 74 90.6666V96.3333H85.3333V90.6666C85.3333 71.9156 70.0843 56.6666 51.3333 56.6666Z" fill="#C0CFDE"/>
</svg>
