<svg width="111" height="110" viewBox="0 0 111 110" fill="none" xmlns="http://www.w3.org/2000/svg">
<path d="M89.659 87.42C91.5762 84.3651 92.6909 80.6903 92.6909 76.7942C92.6909 65.7256 83.7736 56.8707 72.6717 56.8707C61.5697 56.8707 52.6079 65.7256 52.6079 76.7942C52.6079 87.8628 61.5251 96.7176 72.6717 96.7176C76.5507 96.7176 80.2067 95.6108 83.2832 93.707L97.1941 107.299L103.392 101.145L89.659 87.42ZM72.6717 87.8628C66.4742 87.8628 61.5251 82.904 61.5251 76.7942C61.5251 70.6843 66.4742 65.7256 72.6717 65.7256C78.8691 65.7256 83.7736 70.6843 83.7736 76.7942C83.7736 82.904 78.8246 87.8628 72.6717 87.8628ZM101.831 65.7256H99.3788C97.9074 62.1393 95.6781 58.9516 92.9138 56.2508V48.0158H101.831V65.7256ZM92.9138 21.4512H79.5379V12.5963H92.9138C95.2788 12.5963 97.5469 13.5292 99.2192 15.1898C100.892 16.8505 101.831 19.1027 101.831 21.4512V34.7335H92.9138V21.4512ZM66.1621 21.4512H48.3276V12.5963H66.1621V21.4512ZM21.5759 12.5963H34.9518V21.4512H21.5759V34.7335H12.6587V21.4512C12.6587 19.1027 13.5982 16.8505 15.2705 15.1898C16.9428 13.5292 19.2109 12.5963 21.5759 12.5963ZM57.2449 101.145H48.3276V92.2902C50.5569 95.9207 53.678 98.9314 57.2449 101.145ZM21.5759 92.2902H34.9518V101.145H21.5759C19.2109 101.145 16.9428 100.212 15.2705 98.5515C13.5982 96.8909 12.6587 94.6386 12.6587 92.2902V79.0079H21.5759V92.2902ZM21.5759 65.7256H12.6587V48.0158H21.5759V65.7256Z" fill="#D7E0E9"/>
<path d="M85.3168 83.6786C87.2206 80.6236 88.3275 76.9489 88.3275 73.0527C88.3275 61.9841 79.4726 53.1292 68.4483 53.1292C57.424 53.1292 48.5248 61.9841 48.5248 73.0527C48.5248 84.1213 57.3797 92.9762 68.4483 92.9762C72.3002 92.9762 75.9307 91.8693 78.9856 89.9655L92.7992 103.558L98.9534 97.4036L85.3168 83.6786ZM68.4483 84.1213C62.2942 84.1213 57.3797 79.1626 57.3797 73.0527C57.3797 66.9428 62.2942 61.9841 68.4483 61.9841C74.6024 61.9841 79.4726 66.9428 79.4726 73.0527C79.4726 79.1626 74.5582 84.1213 68.4483 84.1213ZM97.4037 61.9841H94.9687C93.5076 58.3979 91.2939 55.2101 88.5489 52.5094V44.2744H97.4037V61.9841ZM88.5489 17.7097H75.2666V8.85486H88.5489C90.8973 8.85486 93.1496 9.78778 94.8102 11.4484C96.4708 13.109 97.4037 15.3613 97.4037 17.7097V30.992H88.5489V17.7097ZM61.9842 17.7097H44.2745V8.85486H61.9842V17.7097ZM17.7099 8.85486H30.9922V17.7097H17.7099V30.992H8.85498V17.7097C8.85498 15.3613 9.7879 13.109 11.4485 11.4484C13.1091 9.78778 15.3614 8.85486 17.7099 8.85486ZM53.1294 97.4036H44.2745V88.5487C46.4882 92.1792 49.5874 95.1899 53.1294 97.4036ZM17.7099 88.5487H30.9922V97.4036H17.7099C15.3614 97.4036 13.1091 96.4707 11.4485 94.8101C9.7879 93.1495 8.85498 90.8972 8.85498 88.5487V75.2664H17.7099V88.5487ZM17.7099 61.9841H8.85498V44.2744H17.7099V61.9841Z" fill="#C0CFDE"/>
</svg>
