<svg width="426" height="127" viewBox="0 0 426 127" fill="none" xmlns="http://www.w3.org/2000/svg">
<rect x="11" y="18" width="415" height="109" rx="5" fill="#D7E0E9"/>
<rect width="418" height="118" rx="6" fill="#F8F8F8"/>
<rect x="1" y="1" width="416" height="116" rx="5" stroke="#B3C3D3" stroke-opacity="0.5" stroke-width="2"/>
<path d="M344.5 13C342.949 13 341.688 14.2337 341.688 15.75V16.85H341.125C340.505 16.85 340 17.3433 340 17.95V22.9C340 23.5066 340.505 24 341.125 24H347.875C348.495 24 349 23.5066 349 22.9V17.95C349 17.3433 348.495 16.85 347.875 16.85H347.312V15.75C347.312 14.2337 346.051 13 344.5 13ZM342.812 15.75C342.812 14.8403 343.57 14.1 344.5 14.1C345.43 14.1 346.188 14.8403 346.188 15.75V16.85H342.812V15.75ZM347.876 22.9H345.062V21.6471C345.397 21.4563 345.625 21.1054 345.625 20.7C345.625 20.0933 345.12 19.6 344.5 19.6C343.88 19.6 343.375 20.0933 343.375 20.7C343.375 21.1048 343.603 21.4563 343.938 21.6471V22.9H341.125V17.95H347.875L347.876 22.9Z" fill="#9095C8"/>
<path d="M357.076 23H358.525V20.2969H360.057C361.904 20.2969 362.896 19.1875 362.896 17.6484C362.896 16.1211 361.916 15 360.076 15H357.076V23ZM358.525 19.1055V16.2109H359.854C360.939 16.2109 361.42 16.7969 361.42 17.6484C361.42 18.5 360.939 19.1055 359.861 19.1055H358.525ZM364.093 23H365.507V19.4727C365.507 18.7109 366.081 18.1719 366.858 18.1719C367.097 18.1719 367.394 18.2148 367.515 18.2539V16.9531C367.386 16.9297 367.163 16.9141 367.007 16.9141C366.319 16.9141 365.745 17.3047 365.526 18H365.464V17H364.093V23ZM368.454 23H369.868V17H368.454V23ZM369.165 16.1484C369.614 16.1484 369.981 15.8047 369.981 15.3828C369.981 14.957 369.614 14.6133 369.165 14.6133C368.712 14.6133 368.345 14.957 368.345 15.3828C368.345 15.8047 368.712 16.1484 369.165 16.1484ZM376.682 17H375.178L373.795 21.457H373.732L372.354 17H370.846L372.982 23H374.545L376.682 17ZM379.215 23.1211C380.156 23.1211 380.719 22.6797 380.977 22.1758H381.023V23H382.383V18.9844C382.383 17.3984 381.09 16.9219 379.945 16.9219C378.684 16.9219 377.715 17.4844 377.402 18.5781L378.723 18.7656C378.863 18.3555 379.262 18.0039 379.953 18.0039C380.609 18.0039 380.969 18.3398 380.969 18.9297V18.9531C380.969 19.3594 380.543 19.3789 379.484 19.4922C378.32 19.6172 377.207 19.9648 377.207 21.3164C377.207 22.4961 378.07 23.1211 379.215 23.1211ZM379.582 22.082C378.992 22.082 378.57 21.8125 378.57 21.293C378.57 20.75 379.043 20.5234 379.676 20.4336C380.047 20.3828 380.789 20.2891 380.973 20.1406V20.8477C380.973 21.5156 380.434 22.082 379.582 22.082ZM386.801 17H385.617V15.5625H384.203V17H383.352V18.0937H384.203V21.4297C384.195 22.5586 385.016 23.1133 386.078 23.082C386.48 23.0703 386.758 22.9922 386.91 22.9414L386.672 21.8359C386.594 21.8555 386.434 21.8906 386.258 21.8906C385.902 21.8906 385.617 21.7656 385.617 21.1953V18.0937H386.801V17ZM390.575 23.1172C391.974 23.1172 392.935 22.4336 393.185 21.3906L391.864 21.2422C391.673 21.75 391.204 22.0156 390.595 22.0156C389.681 22.0156 389.075 21.4141 389.063 20.3867H393.243V19.9531C393.243 17.8477 391.978 16.9219 390.501 16.9219C388.782 16.9219 387.661 18.1836 387.661 20.0352C387.661 21.918 388.767 23.1172 390.575 23.1172ZM389.067 19.4336C389.11 18.668 389.677 18.0234 390.521 18.0234C391.333 18.0234 391.88 18.6172 391.888 19.4336H389.067Z" fill="#9095C8"/>
<rect x="15" y="15" width="138" height="8" rx="4" fill="#C0CFDE"/>
<rect x="15" y="60" width="285" height="7" rx="3.5" fill="#B3C3D3" fill-opacity="0.5"/>
<rect x="15" y="72" width="384" height="7" rx="3.5" fill="#B3C3D3" fill-opacity="0.5"/>
<rect x="15" y="93" width="179" height="7" rx="3.5" fill="#B3C3D3" fill-opacity="0.5"/>
</svg>
