<svg width="109" height="110" viewBox="0 0 109 110" fill="none" xmlns="http://www.w3.org/2000/svg">
<path d="M90.491 4.45947H20.1306C15.4654 4.45947 10.9913 6.31271 7.69255 9.61149C4.39376 12.9103 2.54053 17.3844 2.54053 22.0496V92.4099C2.54053 97.0751 4.39376 101.549 7.69255 104.848C10.9913 108.147 15.4654 110 20.1306 110H90.491C95.1562 110 99.6303 108.147 102.929 104.848C106.228 101.549 108.081 97.0751 108.081 92.4099V22.0496C108.081 17.3844 106.228 12.9103 102.929 9.61149C99.6303 6.31271 95.1562 4.45947 90.491 4.45947ZM96.3543 92.4099C96.3543 93.965 95.7366 95.4564 94.637 96.5559C93.5374 97.6555 92.046 98.2733 90.491 98.2733H20.1306C18.5756 98.2733 17.0842 97.6555 15.9846 96.5559C14.885 95.4564 14.2673 93.965 14.2673 92.4099V22.0496C14.2673 20.4945 14.885 19.0031 15.9846 17.9035C17.0842 16.8039 18.5756 16.1862 20.1306 16.1862H90.491C92.046 16.1862 93.5374 16.8039 94.637 17.9035C95.7366 19.0031 96.3543 20.4945 96.3543 22.0496V92.4099Z" fill="#D7E0E9"/>
<path d="M71.1422 36.0614L48.9787 65.3782L39.4214 53.0065C38.4651 51.778 37.0599 50.9797 35.5149 50.7873C33.97 50.5949 32.4119 51.024 31.1834 51.9804C29.9549 52.9368 29.1567 54.342 28.9642 55.8869C28.7718 57.4318 29.201 58.9899 30.1573 60.2184L44.4053 78.4535C44.9575 79.1523 45.6616 79.7161 46.4642 80.1021C47.2668 80.4882 48.1468 80.6864 49.0374 80.6816C49.9328 80.6794 50.8159 80.4722 51.6188 80.0758C52.4217 79.6794 53.1232 79.1044 53.6694 78.3948L80.465 43.2147C81.4136 41.9706 81.8291 40.4007 81.6202 38.8503C81.4113 37.2998 80.595 35.8959 79.351 34.9473C78.1069 33.9987 76.537 33.5832 74.9866 33.7921C73.4361 34.001 72.0322 34.8173 71.0836 36.0614H71.1422Z" fill="#D7E0E9"/>
<path d="M87.9504 0H17.5901C12.9249 0 8.4508 1.85324 5.15202 5.15202C1.85324 8.4508 0 12.9249 0 17.5901V87.9504C0 92.6156 1.85324 97.0897 5.15202 100.389C8.4508 103.687 12.9249 105.541 17.5901 105.541H87.9504C92.6156 105.541 97.0897 103.687 100.389 100.389C103.687 97.0897 105.541 92.6156 105.541 87.9504V17.5901C105.541 12.9249 103.687 8.4508 100.389 5.15202C97.0897 1.85324 92.6156 0 87.9504 0ZM93.8138 87.9504C93.8138 89.5055 93.1961 90.9969 92.0965 92.0965C90.9969 93.1961 89.5055 93.8138 87.9504 93.8138H17.5901C16.035 93.8138 14.5437 93.1961 13.4441 92.0965C12.3445 90.9969 11.7267 89.5055 11.7267 87.9504V17.5901C11.7267 16.035 12.3445 14.5437 13.4441 13.4441C14.5437 12.3445 16.035 11.7267 17.5901 11.7267H87.9504C89.5055 11.7267 90.9969 12.3445 92.0965 13.4441C93.1961 14.5437 93.8138 16.035 93.8138 17.5901V87.9504Z" fill="#C0CFDE"/>
<path d="M68.6017 31.6019L46.4382 60.9187L36.8809 48.547C35.9246 47.3185 34.5193 46.5202 32.9744 46.3278C31.4295 46.1354 29.8714 46.5646 28.6429 47.5209C27.4144 48.4773 26.6161 49.8825 26.4237 51.4274C26.2313 52.9724 26.6604 54.5304 27.6168 55.7589L41.8648 73.994C42.4169 74.6928 43.121 75.2566 43.9236 75.6427C44.7262 76.0287 45.6062 76.2269 46.4968 76.2221C47.3923 76.2199 48.2753 76.0127 49.0783 75.6163C49.8812 75.2199 50.5827 74.6449 51.1289 73.9354L77.9245 38.7552C78.8731 37.5111 79.2886 35.9412 79.0797 34.3908C78.8707 32.8404 78.0545 31.4364 76.8104 30.4878C75.5664 29.5393 73.9965 29.1237 72.446 29.3326C70.8956 29.5416 69.4917 30.3578 68.5431 31.6019H68.6017Z" fill="#C0CFDE"/>
</svg>
