<svg width="38" height="38" viewBox="0 0 38 38" fill="none" xmlns="http://www.w3.org/2000/svg">
<path d="M33.25 33.5155C33.25 32.0994 38 29.2671 38 26.1988C38 22.6584 34.675 19.8261 30.6375 18.646C32.3 16.7578 33.25 14.6335 33.25 12.0373C33.25 5.42857 26.3625 0 17.575 0C9.2625 0 0 4.95652 0 12.0373C0 16.9938 3.8 20.5342 5.4625 21.9503C5.225 24.7826 4.0375 25.9627 4.0375 25.9627L1.1875 28.323H4.75C8.55 28.323 11.6375 27.1429 13.5375 25.7267V26.1988C13.5375 30.9193 18.7625 34.6956 25.4125 34.6956H26.8375C27.7875 35.8758 30.875 38 34.9125 38C35.15 37.764 33.25 36.8199 33.25 33.5155ZM17.575 2.36025C24.9375 2.36025 30.875 6.84472 30.875 12.0373C30.875 17.2298 24.7 21.7143 17.1 21.7143H14.4875L14.25 22.1863C13.5375 23.1304 10.6875 25.0186 6.8875 25.7267C7.125 24.7826 7.125 23.3665 7.125 21.4783V20.7702C4.75 18.882 2.1375 15.5776 2.1375 12.2733C2.1375 7.08074 9.7375 2.36025 17.575 2.36025Z" fill="black" fill-opacity="0.1"/>
</svg>
