<svg width="28" height="28" viewBox="0 0 28 28" fill="none" xmlns="http://www.w3.org/2000/svg">
<path d="M25.5391 3.33594C24.182 3.33594 23.0781 4.43986 23.0781 5.79688V6.61719H28V5.79688C28 4.43986 26.8961 3.33594 25.5391 3.33594Z" fill="#2149E6"/>
<path d="M25.5372 26.3594C25.8905 26.3594 26.2037 26.1335 26.3151 25.7986L27.7687 21.3828H23.3057L24.7593 25.7986C24.8707 26.1335 25.1839 26.3594 25.5372 26.3594Z" fill="#2149E6"/>
<path d="M23.0781 8.25781H28V19.7422H23.0781V8.25781Z" fill="#2149E6"/>
<path d="M10.7188 0C10.2657 0 9.89844 0.367172 9.89844 0.820312V3.28125H14.8203V0.820312C14.8203 0.367172 14.453 0 14 0H10.7188Z" fill="#2149E6"/>
<path d="M1.64062 28H15.657C15.1484 27.3109 14.8203 26.4578 14.8203 25.5391C14.8203 25.0796 14.4594 24.7188 14 24.7188H0.820312C0.360883 24.7188 0 25.0796 0 25.5391V26.3594C0 27.2617 0.738281 28 1.64062 28Z" fill="#2149E6"/>
<path d="M19.0894 27.9944C20.4183 27.9064 21.4375 26.7742 21.4375 25.4424V2.46094C21.4375 2.00791 21.0702 1.64062 20.6172 1.64062H16.4609V4.10156C16.4609 4.55459 16.0937 4.92188 15.6406 4.92188H9.07812C8.62509 4.92188 8.25781 4.55459 8.25781 4.10156V1.64062H4.10156C3.64853 1.64062 3.28125 2.00791 3.28125 2.46094V23.0781H14C15.3591 23.0781 16.4609 24.1799 16.4609 25.5391C16.4609 26.9536 17.6544 28.0895 19.0894 27.9944ZM7.10938 9.07812H17.2584C17.7004 9.07812 18.0804 9.41812 18.1007 9.85961C18.1223 10.3307 17.7475 10.7188 17.2812 10.7188H7.13223C6.69025 10.7188 6.31023 10.3788 6.28994 9.93727C6.26828 9.46613 6.64311 9.07812 7.10938 9.07812ZM18.1007 14.8591C18.0804 15.3006 17.7004 15.6406 17.2584 15.6406H7.13223C6.69025 15.6406 6.31023 15.3006 6.28994 14.8591C6.26828 14.388 6.64311 14 7.10938 14H17.2812C17.7475 14 18.1223 14.388 18.1007 14.8591ZM7.10938 20.5625C6.64311 20.5625 6.26828 20.1745 6.28994 19.7034C6.31023 19.2619 6.69025 18.9219 7.13223 18.9219H17.2584C17.7004 18.9219 18.0804 19.2619 18.1007 19.7034C18.1223 20.1745 17.7475 20.5625 17.2812 20.5625H7.10938Z" fill="#2149E6"/>
</svg>
