<svg width="52" height="52" viewBox="0 0 52 52" fill="none" xmlns="http://www.w3.org/2000/svg">
    <g clip-path="url(#clip0)">
        <path d="M50.612 1.92969L30.4833 30.987L28.3853 34.0158V44.1863L36.0339 36.7111L32.1276 29.4193"
              fill="#6B6B6B"/>
        <path d="M21.2779 31.8414L6.5 27.3203L50.9844 1.01562V40.9297L28.7422 34.125" fill="#C7C7C7"/>
        <path d="M28.3853 44.1863L21.6687 31.961L50.6121 1.92969L29.0095 33.1147L28.3853 44.1863Z" fill="#6B6B6B"/>
        <path d="M51.4877 0.133453C51.1709 -0.0473283 50.7813 -0.0442815 50.4675 0.141375L31.8557 11.1471C31.3729 11.4326 31.213 12.0554 31.4984 12.5382C31.7838 13.0209 32.4066 13.1809 32.8895 12.8955L46.2432 4.99911L21.3699 30.8075L8.9988 27.0226L25.1437 17.4758C25.6265 17.1902 25.7865 16.5674 25.501 16.0846C25.2156 15.6018 24.5927 15.4417 24.1099 15.7273L5.9831 26.4461C5.63677 26.6509 5.4439 27.0408 5.49154 27.4405C5.53917 27.8401 5.81816 28.1738 6.20288 28.2916L20.9771 32.8115L27.4951 44.6753C27.5019 44.6876 27.5089 44.698 27.5161 44.7072C27.6248 44.8886 27.7879 45.0368 27.9912 45.1223C28.1184 45.1758 28.2522 45.2019 28.385 45.2019C28.6453 45.2019 28.9016 45.1018 29.0951 44.9126L36.5898 37.5879L50.6873 41.9008C50.7848 41.9306 50.8848 41.9453 50.9843 41.9453C51.1992 41.9453 51.4115 41.8771 51.5884 41.7461C51.8473 41.5546 52.0001 41.2516 52.0001 40.9297V1.01562C52.0001 0.650914 51.8044 0.314133 51.4877 0.133453ZM42.6141 11.6919L27.5504 33.4374C27.4328 33.6073 27.3697 33.809 27.3697 34.0157V40.2284L22.919 32.1273L42.6141 11.6919ZM29.401 41.7736V35.3886L34.3765 36.9109L29.401 41.7736ZM30.0119 33.4513L49.9688 4.64181V39.5569L30.0119 33.4513Z"
              fill="black"/>
        <path d="M16.6993 35.3008C16.3026 34.9042 15.6597 34.9042 15.2629 35.3008L5.78183 44.7819C5.38522 45.1785 5.38522 45.8215 5.78183 46.2182C5.98028 46.4165 6.24018 46.5156 6.50008 46.5156C6.75997 46.5156 7.01987 46.4165 7.21822 46.2182L16.6993 36.7371C17.0959 36.3406 17.0959 35.6975 16.6993 35.3008Z"
              fill="black"/>
        <path d="M2.63339 47.9303L0.297451 50.2662C-0.0991504 50.6628 -0.0991504 51.3059 0.297451 51.7026C0.495803 51.9009 0.755701 52 1.0156 52C1.2755 52 1.5354 51.9008 1.73375 51.7025L4.06969 49.3666C4.46629 48.97 4.46629 48.3269 4.06969 47.9302C3.67298 47.5338 3.03009 47.5338 2.63339 47.9303Z"
              fill="black"/>
        <path d="M13.7698 49.9088C13.5015 49.9088 13.2406 50.0175 13.0517 50.2064C12.8628 50.3953 12.7542 50.6563 12.7542 50.9245C12.7542 51.1916 12.8627 51.4536 13.0517 51.6425C13.2406 51.8314 13.5027 51.9401 13.7698 51.9401C14.0369 51.9401 14.2989 51.8314 14.4877 51.6425C14.6766 51.4536 14.7854 51.1916 14.7854 50.9245C14.7854 50.6563 14.6767 50.3953 14.4877 50.2064C14.2989 50.0175 14.0369 49.9088 13.7698 49.9088Z"
              fill="black"/>
        <path d="M20.6079 42.6497L15.586 47.6714C15.1894 48.068 15.1894 48.7111 15.586 49.1077C15.7844 49.3061 16.0443 49.4052 16.3042 49.4052C16.5641 49.4052 16.824 49.306 17.0223 49.1077L22.0442 44.0859C22.4408 43.6893 22.4408 43.0463 22.0442 42.6497C21.6478 42.253 21.0049 42.253 20.6079 42.6497Z"
              fill="black"/>
        <path d="M37.9399 42.2641L32.9044 47.2996C32.5078 47.6962 32.5078 48.3393 32.9044 48.736C33.1027 48.9342 33.3626 49.0335 33.6225 49.0335C33.8824 49.0335 34.1423 48.9342 34.3407 48.736L39.3762 43.7005C39.7728 43.3039 39.7728 42.6608 39.3762 42.2641C38.9794 41.8676 38.3366 41.8676 37.9399 42.2641Z"
              fill="black"/>
        <path d="M28.075 15.5777C28.3421 15.5777 28.6041 15.47 28.793 15.2801C28.9818 15.0912 29.0906 14.8302 29.0906 14.563C29.0906 14.2949 28.9819 14.0329 28.793 13.844C28.6041 13.6551 28.3421 13.5464 28.075 13.5464C27.8078 13.5464 27.5458 13.6551 27.3569 13.844C27.1681 14.0329 27.0593 14.2949 27.0593 14.563C27.0593 14.8302 27.168 15.0912 27.3569 15.2801C27.5458 15.47 27.8078 15.5777 28.075 15.5777Z"
              fill="black"/>
    </g>
    <defs>
        <clipPath id="clip0">
            <rect width="52" height="52" fill="white"/>
        </clipPath>
    </defs>
</svg>
