<svg width="28" height="28" viewBox="0 0 28 28" fill="none" xmlns="http://www.w3.org/2000/svg">
<g clip-path="url(#clip0)">
<path d="M22.8349 15.9476C18.546 16.1149 14.4854 17.2301 10.8675 19.0785L6.21525 21.7648C4.98491 22.4742 3.41365 22.0484 2.70756 20.8244L0.343245 16.7305C-0.364359 15.5043 0.0574033 13.9304 1.28361 13.2228L5.13798 10.9971C5.36117 10.8683 5.6466 10.9447 5.77552 11.1679L8.80416 16.4137C8.9353 16.6408 9.22849 16.7162 9.45354 16.5775C9.67119 16.4433 9.73064 16.1517 9.60277 15.9303L6.55225 10.6466C6.43109 10.4367 6.49059 10.1688 6.68981 10.0307C9.87181 7.82457 12.5639 5.01475 14.6312 1.73778C15.4145 0.495302 17.2395 0.528553 17.9756 1.80312L24.4502 13.0186C25.186 14.2904 24.3051 15.8904 22.8349 15.9476ZM23.6657 8.13643C23.9054 6.76451 23.1013 5.3885 21.8017 4.91751C21.3932 4.76945 21.0226 5.21402 21.2397 5.59034C21.7568 6.48619 22.2758 7.38514 22.8005 8.29365C23.0197 8.67312 23.5903 8.56817 23.6657 8.13643ZM12.8929 24.6495L10.6782 20.805C10.5495 20.5816 10.2638 20.505 10.0404 20.6338C8.84015 21.3263 8.79477 21.3532 7.19376 22.2774C6.97051 22.4062 6.89375 22.6918 7.02267 22.9151L9.24109 26.7571C9.52547 27.2491 10.0369 27.5166 10.5577 27.5166C11.0629 27.5166 11.2561 27.3457 12.3375 26.7215C13.062 26.3033 13.3111 25.3734 12.8929 24.6495ZM27.0732 4.58803C27.2964 4.45917 27.3729 4.17374 27.244 3.95055C27.1152 3.72741 26.8299 3.65082 26.6065 3.77974L25.399 4.4769C24.9858 4.71549 25.1586 5.34784 25.6328 5.34784C25.7988 5.34779 25.7655 5.343 27.0732 4.58803ZM22.7819 2.16975L23.0764 1.07095C23.1431 0.821979 22.9954 0.566121 22.7465 0.499386C22.4973 0.432767 22.2416 0.580413 22.1748 0.829387L21.8804 1.92819C21.8011 2.22406 22.024 2.51579 22.3314 2.51579C22.5375 2.51574 22.7261 2.37824 22.7819 2.16975ZM27.984 9.57113C28.0508 9.32215 27.9029 9.06624 27.654 8.99956L26.5552 8.70514C26.3062 8.63858 26.0503 8.78623 25.9836 9.03514C25.9169 9.28406 26.0647 9.53998 26.3136 9.60671C27.5154 9.92872 27.4494 9.91717 27.5335 9.91717C27.7395 9.91717 27.9281 9.77962 27.984 9.57113Z" fill="#2149E6"/>
</g>
<defs>
<clipPath id="clip0">
<rect width="28" height="28" fill="white"/>
</clipPath>
</defs>
</svg>
