<svg width="171" height="51" viewBox="0 0 171 51" fill="none" xmlns="http://www.w3.org/2000/svg">
<path d="M68.4211 35.06V14.8656H76.9477C77.144 14.8656 77.4058 14.8749 77.733 14.8936C78.0696 14.903 78.3688 14.931 78.6306 14.9778C79.8366 15.1647 80.823 15.5621 81.5896 16.1698C82.3656 16.7775 82.9359 17.5441 83.3005 18.4697C83.6652 19.3859 83.8475 20.4097 83.8475 21.541C83.8475 22.6722 83.6605 23.7006 83.2865 24.6262C82.9219 25.5425 82.3516 26.3044 81.5756 26.9121C80.809 27.5198 79.8273 27.9172 78.6306 28.1042C78.3688 28.1416 78.0696 28.1696 77.733 28.1883C77.3965 28.207 77.1347 28.2163 76.9477 28.2163H72.2357V35.06H68.4211ZM72.2357 24.6543H76.7794C76.9757 24.6543 77.1908 24.6449 77.4245 24.6262C77.6582 24.6075 77.8733 24.5701 78.0696 24.514C78.5838 24.3738 78.9812 24.1401 79.2616 23.8128C79.5421 23.4763 79.7338 23.107 79.8366 22.7049C79.9488 22.2936 80.0049 21.9056 80.0049 21.541C80.0049 21.1763 79.9488 20.793 79.8366 20.391C79.7338 19.9796 79.5421 19.6103 79.2616 19.2831C78.9812 18.9465 78.5838 18.7081 78.0696 18.5679C77.8733 18.5118 77.6582 18.4744 77.4245 18.4557C77.1908 18.437 76.9757 18.4276 76.7794 18.4276H72.2357V24.6543Z" fill="black"/>
<path d="M85.8218 35.06V19.9142H89.1875V23.6165L88.8229 23.1397C89.0192 22.6161 89.281 22.1393 89.6082 21.7092C89.9355 21.2792 90.3375 20.9239 90.8143 20.6434C91.1789 20.419 91.5763 20.2461 92.0063 20.1245C92.4364 19.9936 92.8805 19.9142 93.3386 19.8861C93.7967 19.8487 94.2548 19.8581 94.713 19.9142V23.4763C94.2922 23.3454 93.8014 23.3033 93.2404 23.35C92.6888 23.3874 92.1886 23.5137 91.7399 23.7287C91.2911 23.9344 90.9125 24.2102 90.6039 24.5561C90.2954 24.8927 90.0617 25.2947 89.9027 25.7622C89.7438 26.2203 89.6643 26.7392 89.6643 27.3188V35.06H85.8218Z" fill="black"/>
<path d="M103.081 35.4807C101.557 35.4807 100.22 35.1395 99.07 34.457C97.9201 33.7745 97.0225 32.8349 96.3774 31.6382C95.7417 30.4321 95.4238 29.0484 95.4238 27.4871C95.4238 25.9071 95.751 24.5187 96.4055 23.322C97.0599 22.1159 97.9621 21.1763 99.1121 20.5032C100.262 19.83 101.585 19.4935 103.081 19.4935C104.605 19.4935 105.942 19.8347 107.092 20.5172C108.251 21.1997 109.153 22.144 109.798 23.35C110.443 24.5468 110.766 25.9258 110.766 27.4871C110.766 29.0578 110.439 30.4462 109.784 31.6522C109.139 32.8489 108.237 33.7885 107.078 34.471C105.928 35.1442 104.595 35.4807 103.081 35.4807ZM103.081 31.9187C104.306 31.9187 105.217 31.5073 105.816 30.6846C106.423 29.8525 106.727 28.7867 106.727 27.4871C106.727 26.1408 106.419 25.0656 105.802 24.2616C105.194 23.4576 104.287 23.0555 103.081 23.0555C102.249 23.0555 101.566 23.2425 101.033 23.6165C100.5 23.9905 100.103 24.5094 99.8413 25.1732C99.5889 25.837 99.4627 26.6083 99.4627 27.4871C99.4627 28.8427 99.7665 29.9226 100.374 30.7266C100.991 31.5213 101.894 31.9187 103.081 31.9187Z" fill="black"/>
<path d="M113.008 35.06V14.8656H125.35V18.6801H116.823V23.0555H123.667V26.8701H116.823V35.06H113.008Z" fill="black"/>
<path d="M127.321 35.06V14.4448H131.135V35.06H127.321Z" fill="black"/>
<path d="M141.314 35.4807C139.79 35.4807 138.453 35.1395 137.303 34.457C136.153 33.7745 135.255 32.8349 134.61 31.6382C133.974 30.4321 133.657 29.0484 133.657 27.4871C133.657 25.9071 133.984 24.5187 134.638 23.322C135.293 22.1159 136.195 21.1763 137.345 20.5032C138.495 19.83 139.818 19.4935 141.314 19.4935C142.838 19.4935 144.174 19.8347 145.324 20.5172C146.484 21.1997 147.386 22.144 148.031 23.35C148.676 24.5468 148.999 25.9258 148.999 27.4871C148.999 29.0578 148.672 30.4462 148.017 31.6522C147.372 32.8489 146.47 33.7885 145.31 34.471C144.16 35.1442 142.828 35.4807 141.314 35.4807ZM141.314 31.9187C142.538 31.9187 143.45 31.5073 144.048 30.6846C144.656 29.8525 144.96 28.7867 144.96 27.4871C144.96 26.1408 144.651 25.0656 144.034 24.2616C143.427 23.4576 142.52 23.0555 141.314 23.0555C140.482 23.0555 139.799 23.2425 139.266 23.6165C138.733 23.9905 138.336 24.5094 138.074 25.1732C137.822 25.837 137.695 26.6083 137.695 27.4871C137.695 28.8427 137.999 29.9226 138.607 30.7266C139.224 31.5213 140.126 31.9187 141.314 31.9187Z" fill="black"/>
<path d="M153.919 35.06L149.291 19.8861L153.021 19.9142L155.77 28.9456L158.561 19.9142H161.73L164.521 28.9456L167.27 19.9142H171L166.372 35.06H163.455L160.146 25.1872L156.836 35.06H153.919Z" fill="black"/>
<circle cx="25.7885" cy="25.2431" r="22.676" fill="#0532E6" stroke="#0532E6" stroke-width="5.13419"/>
<circle cx="25.7882" cy="25.3095" r="17.114" fill="#0532E6" stroke="white" stroke-width="5.13419"/>
<path d="M8.75092 27.3498C8.75092 27.3498 11.034 21.8799 18.3232 21.8799C25.6124 21.8799 25.1607 30.0848 31.9981 30.0848C38.8356 30.0848 42.8504 23.5469 42.8504 23.5469" stroke="white" stroke-width="5.13419"/>
</svg>
